<svg width="68" height="68" viewBox="0 0 68 68" fill="none" xmlns="http://www.w3.org/2000/svg">
<g clip-path="url(#clip0_107_2669)">
<path d="M33.9991 0C18.2433 0 7.18579 26.3971 7.18579 40.6896C7.18579 48.0016 9.92935 54.8502 14.9105 59.9743C19.942 65.1501 26.7208 68.0003 33.9991 68.0003C41.2778 68.0003 48.058 65.1501 53.0898 59.9746C58.0717 54.8506 60.8146 48.0016 60.8146 40.6896C60.8142 26.3971 49.7567 0 33.9991 0ZM55.4959 40.6896C55.4959 53.0214 46.0537 62.6817 33.9988 62.6817C21.946 62.6817 12.5038 53.0214 12.5038 40.6896C12.5038 34.1806 15.1711 25.0065 19.1414 17.8608C23.5702 9.88964 28.9853 5.31834 33.9991 5.31834C39.0136 5.31834 44.4295 9.88964 48.8586 17.8608C52.8285 25.0061 55.4959 34.1803 55.4959 40.6896Z" fill="#33332D"/>
</g>
<defs>
<clipPath id="clip0_107_2669">
<rect width="68" height="68" fill="white"/>
</clipPath>
</defs>
</svg>
