<svg width="498" height="416" viewBox="0 0 498 416" fill="none" xmlns="http://www.w3.org/2000/svg">
<g clip-path="url(#clip0_101_1909)">
<path d="M78.5338 222.59C78.5338 225.162 75.3383 227.246 71.3957 227.246H31.0498C27.1072 227.246 23.9117 225.162 23.9117 222.59C23.9117 220.019 27.1072 217.934 31.0498 217.934H71.3951C75.3383 217.934 78.5338 220.019 78.5338 222.59Z" fill="#33332D"/>
<path d="M184.116 222.59C184.116 225.162 180.921 227.246 176.978 227.246H136.632C132.69 227.246 129.494 225.162 129.494 222.59C129.494 220.019 132.69 217.934 136.632 217.934H176.978C180.921 217.934 184.116 220.019 184.116 222.59Z" fill="#33332D"/>
<path d="M135.608 217.938H69.3079V227.255H135.608V217.938Z" fill="#33332D"/>
<path d="M222.565 259.751C222.565 262.323 219.37 264.407 215.427 264.407H175.081C171.139 264.407 167.943 262.323 167.943 259.751C167.943 257.18 171.139 255.095 175.081 255.095H215.427C219.37 255.095 222.565 257.18 222.565 259.751Z" fill="#33332D"/>
<path d="M174.057 255.099H107.757V264.416H174.057V255.099Z" fill="#33332D"/>
<path d="M116.983 259.751C116.983 262.323 113.787 264.407 109.845 264.407H69.4989C65.5563 264.407 62.3608 262.323 62.3608 259.751C62.3608 257.18 65.5563 255.095 69.4989 255.095H109.844C113.787 255.095 116.983 257.18 116.983 259.751Z" fill="#33332D"/>
<path d="M174.057 404.463H107.757V413.78H174.057V404.463Z" fill="#33332D"/>
<path d="M116.983 409.115C116.983 411.687 113.787 413.772 109.845 413.772H69.4989C65.5563 413.772 62.3608 411.687 62.3608 409.115C62.3608 406.544 65.5563 404.459 69.4989 404.459H109.844C113.787 404.459 116.983 406.544 116.983 409.115Z" fill="#33332D"/>
<path d="M222.565 409.115C222.565 411.687 219.37 413.772 215.427 413.772H175.081C171.139 413.772 167.943 411.687 167.943 409.115C167.943 406.544 171.139 404.459 175.081 404.459H215.427C219.37 404.459 222.565 406.544 222.565 409.115Z" fill="#33332D"/>
<path d="M62.3022 302.733V367.897H71.7814V302.733H62.3022Z" fill="#33332D"/>
<path d="M67.0357 255.054C69.6521 255.054 71.7732 258.195 71.7732 262.07V301.726C71.7732 305.601 69.6521 308.741 67.0357 308.741C64.4194 308.741 62.2982 305.601 62.2982 301.726V262.071C62.2982 258.195 64.4194 255.054 67.0357 255.054Z" fill="#33332D"/>
<path d="M67.0357 358.829C69.6521 358.829 71.7732 361.97 71.7732 365.845V405.501C71.7732 409.376 69.6521 412.516 67.0357 412.516C64.4194 412.516 62.2982 409.376 62.2982 405.501V365.846C62.2982 361.97 64.4194 358.829 67.0357 358.829Z" fill="#33332D"/>
<path d="M218.147 412.864C215.53 412.864 213.409 409.723 213.409 405.848V366.193C213.409 362.318 215.53 359.177 218.147 359.177C220.763 359.177 222.884 362.318 222.884 366.193V405.848C222.884 409.723 220.763 412.864 218.147 412.864Z" fill="#33332D"/>
<path d="M222.88 365.186V300.021H213.401V365.186H222.88Z" fill="#33332D"/>
<path d="M218.147 309.089C215.53 309.089 213.409 305.948 213.409 302.073V262.418C213.409 258.543 215.53 255.402 218.147 255.402C220.763 255.402 222.884 258.543 222.884 262.418V302.073C222.884 305.948 220.763 309.089 218.147 309.089Z" fill="#33332D"/>
<path d="M23.8531 266.141V331.306H33.3323V266.141H23.8531Z" fill="#33332D"/>
<path d="M28.5866 218.463C31.203 218.463 33.3241 221.604 33.3241 225.479V265.134C33.3241 269.009 31.203 272.15 28.5866 272.15C25.9703 272.15 23.8491 269.009 23.8491 265.134V225.48C23.8491 221.604 25.9703 218.463 28.5866 218.463Z" fill="#33332D"/>
<path d="M28.4828 322.202C31.0613 322.202 33.1517 325.469 33.1517 329.499V370.74C33.1517 374.77 31.0613 378.037 28.4828 378.037C25.9044 378.037 23.814 374.77 23.814 370.74V329.499C23.814 325.469 25.9044 322.202 28.4828 322.202Z" fill="#33332D"/>
<path d="M69.028 412.405C67.4722 414.009 63.6227 412.891 60.4295 409.907L27.7524 379.376C24.5593 376.392 23.2324 372.674 24.7882 371.07C26.3441 369.466 30.1935 370.584 33.3867 373.568L66.0633 404.099C69.257 407.083 70.5838 410.801 69.028 412.405Z" fill="#33332D"/>
<path d="M71.2727 264.743C69.5285 266.458 65.8456 265.618 63.0464 262.866L34.4008 234.711C31.6015 231.96 30.7468 228.34 32.491 226.626C34.2353 224.911 37.9182 225.751 40.7174 228.503L69.3626 256.657C72.1622 259.409 73.017 263.029 71.2727 264.743Z" fill="#33332D"/>
<path d="M222.572 263.968C220.903 265.608 216.866 264.299 213.554 261.044L179.664 227.734C176.352 224.479 175.021 220.511 176.689 218.871C178.357 217.231 182.394 218.54 185.706 221.795L219.596 255.105C222.908 258.361 224.24 262.328 222.572 263.968Z" fill="#33332D"/>
</g>
<g clip-path="url(#clip1_101_1909)">
<path d="M154.761 29.3721C154.287 31.8991 150.755 33.3808 146.872 32.6813L107.13 25.5227C103.246 24.8232 100.482 22.2075 100.956 19.6805C101.43 17.1535 104.962 15.6718 108.845 16.3714L148.587 23.5298C152.471 24.2295 155.235 26.8451 154.761 29.3721Z" fill="#33332D"/>
<path d="M258.764 48.1056C258.29 50.6326 254.758 52.1143 250.875 51.4148L211.132 44.2563C207.249 43.5567 204.485 40.9411 204.959 38.4141C205.433 35.8871 208.964 34.4054 212.848 35.1049L252.59 42.2633C256.474 42.963 259.238 45.5787 258.764 48.1056Z" fill="#33332D"/>
<path d="M211.838 34.9269L146.53 23.1633L144.814 32.3188L210.121 44.0824L211.838 34.9269Z" fill="#33332D"/>
<path d="M289.792 91.4446C289.318 93.9716 285.786 95.4533 281.902 94.7538L242.16 87.5952C238.277 86.8957 235.513 84.28 235.987 81.7531C236.46 79.2261 239.992 77.7444 243.876 78.4439L283.617 85.6023C287.502 86.302 290.265 88.9176 289.792 91.4446Z" fill="#33332D"/>
<path d="M242.866 78.266L177.558 66.5024L175.842 75.6579L241.149 87.4215L242.866 78.266Z" fill="#33332D"/>
<path d="M185.789 72.7112C185.315 75.2382 181.783 76.7199 177.9 76.0204L138.157 68.8618C134.274 68.1623 131.51 65.5466 131.984 63.0197C132.458 60.4927 135.989 59.011 139.873 59.7105L179.615 66.8689C183.499 67.5686 186.263 70.1842 185.789 72.7112Z" fill="#33332D"/>
<path d="M215.349 225.041L150.041 213.278L148.325 222.433L213.632 234.197L215.349 225.041Z" fill="#33332D"/>
<path d="M158.272 219.487C157.798 222.014 154.266 223.495 150.383 222.796L110.64 215.637C106.757 214.938 103.993 212.322 104.467 209.795C104.941 207.268 108.473 205.786 112.356 206.486L152.098 213.644C155.982 214.344 158.746 216.96 158.272 219.487Z" fill="#33332D"/>
<path d="M262.275 238.22C261.801 240.747 258.269 242.229 254.385 241.529L214.643 234.371C210.76 233.671 207.996 231.056 208.47 228.529C208.943 226.002 212.475 224.52 216.359 225.219L256.101 232.378C259.985 233.077 262.748 235.693 262.275 238.22Z" fill="#33332D"/>
<path d="M124.008 105.246L112.003 169.281L121.34 170.963L133.345 106.928L124.008 105.246Z" fill="#33332D"/>
<path d="M137.454 59.2337C140.031 59.6979 141.542 63.1607 140.828 66.9686L133.523 105.937C132.809 109.745 130.141 112.455 127.564 111.99C124.986 111.526 123.476 108.063 124.189 104.255L131.495 65.288C132.209 61.4795 134.877 58.7695 137.454 59.2337Z" fill="#33332D"/>
<path d="M118.336 161.21C120.913 161.674 122.424 165.137 121.71 168.945L114.404 207.913C113.691 211.721 111.023 214.431 108.445 213.967C105.868 213.503 104.357 210.04 105.071 206.232L112.377 167.265C113.091 163.456 115.759 160.746 118.336 161.21Z" fill="#33332D"/>
<path d="M257.231 241.12C254.654 240.656 253.143 237.193 253.857 233.385L261.163 194.417C261.877 190.609 264.545 187.899 267.122 188.364C269.699 188.828 271.21 192.291 270.496 196.099L263.191 235.066C262.477 238.874 259.809 241.585 257.231 241.12Z" fill="#33332D"/>
<path d="M270.678 195.108L282.683 131.073L273.345 129.391L261.34 193.426L270.678 195.108Z" fill="#33332D"/>
<path d="M276.35 139.144C273.772 138.68 272.262 135.217 272.976 131.409L280.281 92.4408C280.995 88.6329 283.663 85.9229 286.24 86.3871C288.817 86.8513 290.328 90.3141 289.614 94.122L282.309 133.089C281.595 136.898 278.927 139.608 276.35 139.144Z" fill="#33332D"/>
<path d="M92.875 62.4668L80.8699 126.502L90.2073 128.184L102.212 64.1487L92.875 62.4668Z" fill="#33332D"/>
<path d="M106.321 16.4546C108.899 16.9189 110.409 20.3816 109.695 24.1895L102.39 63.1575C101.676 66.9655 99.008 69.6755 96.4308 69.2113C93.8536 68.7471 92.3428 65.2843 93.0567 61.4764L100.362 22.509C101.076 18.7005 103.744 15.9904 106.321 16.4546Z" fill="#33332D"/>
<path d="M87.1076 118.377C89.6475 118.835 91.1048 122.416 90.3624 126.376L82.7646 166.903C82.0221 170.863 79.3612 173.702 76.8214 173.244C74.2815 172.787 72.8242 169.206 73.5666 165.246L81.1643 124.72C81.9069 120.759 84.5678 117.92 87.1076 118.377Z" fill="#33332D"/>
<path d="M110.428 214.211C108.6 215.511 105.014 213.729 102.418 210.231L75.855 174.431C73.2593 170.932 72.6374 167.043 74.4655 165.743C76.2936 164.443 79.8796 166.225 82.4753 169.723L109.038 205.522C111.634 209.021 112.256 212.911 110.428 214.211Z" fill="#33332D"/>
<path d="M139.843 69.5067C137.809 70.8819 134.336 69.4028 132.085 66.2026L109.055 33.4527C106.805 30.2524 106.63 26.5436 108.664 25.1684C110.698 23.7932 114.171 25.2723 116.421 28.4725L139.451 61.2219C141.702 64.4227 141.877 68.1315 139.843 69.5067Z" fill="#33332D"/>
<path d="M289.021 95.5897C287.075 96.9051 283.34 94.9026 280.677 91.1164L253.43 52.3701C250.768 48.5838 250.187 44.4485 252.133 43.1332C254.078 41.8178 257.814 43.8202 260.476 47.6064L287.723 86.3522C290.385 90.139 290.966 94.2743 289.021 95.5897Z" fill="#33332D"/>
</g>
<g clip-path="url(#clip2_101_1909)">
<path d="M340.889 195.108C340.411 197.634 336.877 199.11 332.994 198.404L293.264 191.184C289.381 190.478 286.622 187.858 287.1 185.332C287.578 182.806 291.112 181.329 294.994 182.035L334.724 189.256C338.607 189.961 341.367 192.581 340.889 195.108Z" fill="#33332D"/>
<path d="M444.861 214.003C444.383 216.53 440.849 218.006 436.967 217.3L397.236 210.08C393.354 209.374 390.594 206.754 391.072 204.228C391.55 201.702 395.084 200.225 398.967 200.931L438.697 208.151C442.58 208.857 445.339 211.477 444.861 214.003Z" fill="#33332D"/>
<path d="M397.957 200.751L332.668 188.886L330.937 198.039L396.225 209.904L397.957 200.751Z" fill="#33332D"/>
<path d="M475.818 257.391C475.341 259.917 471.806 261.393 467.924 260.688L428.193 253.467C424.311 252.761 421.551 250.141 422.029 247.615C422.507 245.089 426.041 243.613 429.924 244.318L469.654 251.539C473.537 252.245 476.296 254.865 475.818 257.391Z" fill="#33332D"/>
<path d="M428.914 244.139L363.625 232.273L361.894 241.426L427.183 253.292L428.914 244.139Z" fill="#33332D"/>
<path d="M371.846 238.495C371.368 241.021 367.834 242.497 363.952 241.792L324.221 234.571C320.339 233.865 317.579 231.245 318.057 228.719C318.535 226.193 322.069 224.717 325.952 225.422L365.682 232.643C369.565 233.349 372.324 235.969 371.846 238.495Z" fill="#33332D"/>
<path d="M401.158 390.871L335.87 379.006L334.139 388.158L399.427 400.024L401.158 390.871Z" fill="#33332D"/>
<path d="M344.091 385.227C343.613 387.754 340.079 389.23 336.196 388.524L296.466 381.303C292.583 380.598 289.824 377.978 290.302 375.452C290.779 372.925 294.314 371.449 298.196 372.155L337.926 379.375C341.809 380.081 344.568 382.701 344.091 385.227Z" fill="#33332D"/>
<path d="M448.063 404.123C447.585 406.649 444.051 408.126 440.168 407.42L400.438 400.199C396.555 399.494 393.796 396.874 394.274 394.348C394.752 391.821 398.286 390.345 402.168 391.051L441.898 398.271C445.781 398.977 448.541 401.597 448.063 404.123Z" fill="#33332D"/>
<path d="M310.012 270.933L297.903 334.95L307.238 336.646L319.347 272.63L310.012 270.933Z" fill="#33332D"/>
<path d="M323.533 224.942C326.11 225.41 327.615 228.875 326.895 232.682L319.526 271.639C318.806 275.445 316.134 278.151 313.557 277.683C310.981 277.215 309.476 273.75 310.196 269.943L317.564 230.987C318.285 227.18 320.957 224.474 323.533 224.942Z" fill="#33332D"/>
<path d="M304.25 326.888C306.826 327.357 308.331 330.822 307.611 334.629L300.242 373.585C299.522 377.392 296.85 380.098 294.273 379.63C291.697 379.161 290.192 375.696 290.912 371.889L298.28 332.933C299.001 329.126 301.673 326.42 304.25 326.888Z" fill="#33332D"/>
<path d="M443.015 407.015C440.438 406.547 438.933 403.082 439.653 399.275L447.022 360.319C447.742 356.512 450.415 353.806 452.991 354.274C455.568 354.743 457.073 358.208 456.353 362.014L448.984 400.97C448.264 404.778 445.591 407.484 443.015 407.015Z" fill="#33332D"/>
<path d="M456.536 361.024L468.645 297.008L459.311 295.311L447.201 359.328L456.536 361.024Z" fill="#33332D"/>
<path d="M462.299 305.069C459.722 304.601 458.217 301.136 458.937 297.329L466.306 258.372C467.026 254.565 469.699 251.86 472.275 252.328C474.852 252.796 476.357 256.261 475.637 260.068L468.268 299.024C467.548 302.831 464.875 305.537 462.299 305.069Z" fill="#33332D"/>
<path d="M278.949 228.105L266.84 292.122L276.175 293.818L288.284 229.802L278.949 228.105Z" fill="#33332D"/>
<path d="M292.47 182.114C295.047 182.583 296.552 186.048 295.832 189.854L288.463 228.811C287.743 232.618 285.07 235.324 282.494 234.855C279.918 234.387 278.412 230.922 279.132 227.115L286.501 188.159C287.221 184.352 289.894 181.646 292.47 182.114Z" fill="#33332D"/>
<path d="M273.091 284.007C275.63 284.468 277.082 288.051 276.333 292.01L268.669 332.525C267.92 336.484 265.255 339.319 262.715 338.858C260.176 338.396 258.725 334.813 259.474 330.854L267.137 290.34C267.886 286.38 270.552 283.545 273.091 284.007Z" fill="#33332D"/>
<path d="M296.256 379.876C294.425 381.173 290.842 379.386 288.252 375.884L261.747 340.043C259.157 336.54 258.542 332.65 260.372 331.353C262.202 330.056 265.785 331.843 268.375 335.345L294.88 371.186C297.47 374.689 298.086 378.579 296.256 379.876Z" fill="#33332D"/>
<path d="M325.905 235.219C323.869 236.591 320.399 235.106 318.153 231.902L295.177 199.117C292.931 195.913 292.762 192.204 294.798 190.832C296.835 189.46 300.305 190.944 302.551 194.148L325.527 226.933C327.773 230.138 327.942 233.847 325.905 235.219Z" fill="#33332D"/>
<path d="M475.041 261.535C473.093 262.847 469.361 260.839 466.705 257.048L439.521 218.26C436.865 214.469 436.29 210.333 438.238 209.021C440.186 207.708 443.918 209.717 446.574 213.507L473.758 252.295C476.414 256.086 476.988 260.222 475.041 261.535Z" fill="#33332D"/>
</g>
<g clip-path="url(#clip3_101_1909)">
<path d="M331.336 266.778C333.35 267.144 335.259 265.982 335.599 264.184C335.939 262.385 334.582 260.63 332.567 260.264C330.553 259.898 328.645 261.06 328.304 262.858C327.964 264.657 329.322 266.412 331.336 266.778Z" fill="#33332D"/>
<path d="M329.267 278.431C331.281 278.797 333.19 277.635 333.53 275.837C333.87 274.038 332.513 272.283 330.499 271.917C328.484 271.552 326.576 272.713 326.236 274.512C325.896 276.31 327.253 278.065 329.267 278.431Z" fill="#33332D"/>
<path d="M326.896 289.62C328.91 289.986 330.818 288.824 331.159 287.026C331.499 285.227 330.141 283.473 328.127 283.107C326.113 282.741 324.204 283.902 323.864 285.701C323.524 287.499 324.881 289.254 326.896 289.62Z" fill="#33332D"/>
<path d="M324.737 301.533C326.752 301.899 328.66 300.738 329 298.939C329.34 297.141 327.983 295.386 325.969 295.02C323.955 294.654 322.046 295.816 321.706 297.614C321.366 299.413 322.723 301.167 324.737 301.533Z" fill="#33332D"/>
<path d="M322.682 313.189C324.696 313.555 326.604 312.393 326.945 310.595C327.285 308.796 325.927 307.042 323.913 306.676C321.899 306.31 319.99 307.471 319.65 309.27C319.31 311.068 320.667 312.823 322.682 313.189Z" fill="#33332D"/>
<path d="M320.31 324.378C322.324 324.744 324.233 323.583 324.573 321.784C324.913 319.985 323.556 318.231 321.541 317.865C319.527 317.499 317.619 318.66 317.279 320.459C316.938 322.257 318.296 324.012 320.31 324.378Z" fill="#33332D"/>
<path d="M318.4 335.832C320.414 336.198 322.323 335.036 322.663 333.238C323.003 331.439 321.646 329.684 319.632 329.318C317.617 328.952 315.709 330.114 315.369 331.912C315.029 333.711 316.386 335.466 318.4 335.832Z" fill="#33332D"/>
<path d="M316.345 347.487C318.359 347.853 320.267 346.692 320.607 344.893C320.948 343.094 319.59 341.34 317.576 340.974C315.562 340.608 313.653 341.769 313.313 343.568C312.973 345.366 314.33 347.121 316.345 347.487Z" fill="#33332D"/>
<path d="M313.74 359.837C315.754 360.203 317.663 359.041 318.003 357.243C318.343 355.444 316.986 353.689 314.972 353.323C312.957 352.957 311.049 354.119 310.709 355.917C310.369 357.716 311.726 359.471 313.74 359.837Z" fill="#33332D"/>
<path d="M344.349 269.13C346.363 269.496 348.272 268.334 348.612 266.536C348.952 264.737 347.595 262.982 345.581 262.616C343.566 262.251 341.658 263.412 341.318 265.211C340.978 267.009 342.335 268.764 344.349 269.13Z" fill="#33332D"/>
<path d="M342.28 280.783C344.295 281.149 346.203 279.987 346.543 278.189C346.883 276.39 345.526 274.635 343.512 274.27C341.498 273.904 339.589 275.065 339.249 276.864C338.909 278.662 340.266 280.417 342.28 280.783Z" fill="#33332D"/>
<path d="M339.689 293.135C341.703 293.501 343.612 292.34 343.952 290.541C344.292 288.742 342.935 286.988 340.92 286.622C338.906 286.256 336.998 287.417 336.658 289.216C336.317 291.014 337.675 292.769 339.689 293.135Z" fill="#33332D"/>
<path d="M337.748 303.897C339.762 304.263 341.671 303.102 342.011 301.303C342.351 299.504 340.994 297.75 338.98 297.384C336.965 297.018 335.057 298.179 334.717 299.978C334.377 301.776 335.734 303.531 337.748 303.897Z" fill="#33332D"/>
<path d="M335.693 315.553C337.707 315.919 339.615 314.757 339.956 312.959C340.296 311.16 338.938 309.405 336.924 309.039C334.91 308.673 333.001 309.835 332.661 311.633C332.321 313.432 333.678 315.187 335.693 315.553Z" fill="#33332D"/>
<path d="M333.323 326.73C335.337 327.096 337.246 325.935 337.586 324.136C337.926 322.337 336.569 320.583 334.555 320.217C332.54 319.851 330.632 321.012 330.292 322.811C329.952 324.609 331.309 326.364 333.323 326.73Z" fill="#33332D"/>
<path d="M331.411 338.195C333.425 338.561 335.334 337.4 335.674 335.601C336.014 333.803 334.657 332.048 332.643 331.682C330.628 331.316 328.72 332.477 328.38 334.276C328.04 336.075 329.397 337.829 331.411 338.195Z" fill="#33332D"/>
<path d="M329.355 349.851C331.37 350.217 333.278 349.055 333.618 347.257C333.959 345.458 332.601 343.703 330.587 343.338C328.573 342.972 326.664 344.133 326.324 345.932C325.984 347.73 327.341 349.485 329.355 349.851Z" fill="#33332D"/>
<path d="M326.751 362.2C328.765 362.566 330.674 361.405 331.014 359.606C331.354 357.808 329.997 356.053 327.983 355.687C325.968 355.321 324.06 356.483 323.72 358.281C323.379 360.08 324.737 361.834 326.751 362.2Z" fill="#33332D"/>
<path d="M357.384 271.51C359.398 271.876 361.307 270.714 361.647 268.916C361.987 267.117 360.63 265.362 358.615 264.996C356.601 264.631 354.693 265.792 354.353 267.591C354.012 269.389 355.37 271.144 357.384 271.51Z" fill="#33332D"/>
<path d="M370.41 273.864C372.424 274.23 374.333 273.069 374.673 271.27C375.013 269.472 373.656 267.717 371.642 267.351C369.627 266.985 367.719 268.146 367.379 269.945C367.039 271.744 368.396 273.498 370.41 273.864Z" fill="#33332D"/>
<path d="M355.317 283.151C357.332 283.517 359.24 282.356 359.58 280.557C359.92 278.759 358.563 277.004 356.549 276.638C354.535 276.272 352.626 277.433 352.286 279.232C351.946 281.031 353.303 282.785 355.317 283.151Z" fill="#33332D"/>
<path d="M368.341 285.517C370.356 285.883 372.264 284.722 372.604 282.923C372.944 281.125 371.587 279.37 369.573 279.004C367.559 278.638 365.65 279.799 365.31 281.598C364.97 283.397 366.327 285.151 368.341 285.517Z" fill="#33332D"/>
<path d="M352.946 294.34C354.96 294.706 356.869 293.545 357.209 291.746C357.549 289.948 356.192 288.193 354.177 287.827C352.163 287.461 350.254 288.623 349.914 290.421C349.574 292.22 350.931 293.974 352.946 294.34Z" fill="#33332D"/>
<path d="M365.97 296.707C367.984 297.072 369.893 295.911 370.233 294.112C370.573 292.314 369.216 290.559 367.201 290.193C365.187 289.827 363.278 290.989 362.938 292.787C362.598 294.586 363.956 296.341 365.97 296.707Z" fill="#33332D"/>
<path d="M350.787 306.254C352.802 306.62 354.71 305.458 355.05 303.66C355.39 301.861 354.033 300.107 352.019 299.741C350.005 299.375 348.096 300.536 347.756 302.335C347.416 304.133 348.773 305.888 350.787 306.254Z" fill="#33332D"/>
<path d="M363.811 308.62C365.826 308.986 367.734 307.824 368.074 306.026C368.415 304.227 367.057 302.473 365.043 302.107C363.029 301.741 361.12 302.902 360.78 304.701C360.44 306.499 361.797 308.254 363.811 308.62Z" fill="#33332D"/>
<path d="M348.732 317.909C350.746 318.275 352.655 317.114 352.995 315.315C353.335 313.517 351.978 311.762 349.963 311.396C347.949 311.03 346.04 312.192 345.7 313.99C345.36 315.789 346.718 317.543 348.732 317.909Z" fill="#33332D"/>
<path d="M361.756 320.275C363.77 320.641 365.679 319.48 366.019 317.681C366.359 315.883 365.002 314.128 362.987 313.762C360.973 313.396 359.064 314.558 358.724 316.356C358.384 318.155 359.742 319.91 361.756 320.275Z" fill="#33332D"/>
<path d="M346.36 329.098C348.374 329.464 350.283 328.303 350.623 326.504C350.963 324.706 349.606 322.951 347.592 322.585C345.577 322.219 343.669 323.381 343.329 325.179C342.989 326.978 344.346 328.733 346.36 329.098Z" fill="#33332D"/>
<path d="M359.384 331.465C361.398 331.831 363.307 330.669 363.647 328.871C363.987 327.072 362.63 325.317 360.616 324.951C358.601 324.585 356.693 325.747 356.353 327.545C356.013 329.344 357.37 331.099 359.384 331.465Z" fill="#33332D"/>
<path d="M344.45 340.552C346.465 340.918 348.373 339.757 348.713 337.958C349.053 336.159 347.696 334.405 345.682 334.039C343.668 333.673 341.759 334.834 341.419 336.633C341.079 338.431 342.436 340.186 344.45 340.552Z" fill="#33332D"/>
<path d="M357.474 342.918C359.489 343.284 361.397 342.123 361.737 340.324C362.077 338.525 360.72 336.771 358.706 336.405C356.692 336.039 354.783 337.2 354.443 338.999C354.103 340.797 355.46 342.552 357.474 342.918Z" fill="#33332D"/>
<path d="M342.395 352.207C344.409 352.573 346.318 351.412 346.658 349.613C346.998 347.815 345.641 346.06 343.626 345.694C341.612 345.328 339.703 346.49 339.363 348.288C339.023 350.087 340.38 351.842 342.395 352.207Z" fill="#33332D"/>
<path d="M355.419 354.574C357.433 354.94 359.342 353.778 359.682 351.98C360.022 350.181 358.665 348.426 356.65 348.06C354.636 347.694 352.727 348.856 352.387 350.654C352.047 352.453 353.404 354.208 355.419 354.574Z" fill="#33332D"/>
<path d="M339.79 364.557C341.804 364.923 343.713 363.762 344.053 361.963C344.393 360.164 343.036 358.41 341.022 358.044C339.007 357.678 337.099 358.839 336.759 360.638C336.419 362.436 337.776 364.191 339.79 364.557Z" fill="#33332D"/>
<path d="M352.814 366.923C354.828 367.289 356.737 366.128 357.077 364.329C357.417 362.531 356.06 360.776 354.046 360.41C352.031 360.044 350.123 361.205 349.783 363.004C349.443 364.803 350.8 366.557 352.814 366.923Z" fill="#33332D"/>
<path d="M383.11 276.448C385.124 276.814 387.033 275.652 387.373 273.854C387.713 272.055 386.356 270.301 384.342 269.935C382.327 269.569 380.419 270.73 380.079 272.529C379.739 274.327 381.096 276.082 383.11 276.448Z" fill="#33332D"/>
<path d="M396.136 278.802C398.151 279.168 400.059 278.007 400.399 276.208C400.739 274.41 399.382 272.655 397.368 272.289C395.354 271.923 393.445 273.085 393.105 274.883C392.765 276.682 394.122 278.437 396.136 278.802Z" fill="#33332D"/>
<path d="M409.158 281.18C411.172 281.546 413.081 280.385 413.421 278.586C413.761 276.787 412.404 275.033 410.39 274.667C408.375 274.301 406.467 275.462 406.127 277.261C405.787 279.06 407.144 280.814 409.158 281.18Z" fill="#33332D"/>
<path d="M422.184 283.535C424.199 283.9 426.107 282.739 426.447 280.94C426.787 279.142 425.43 277.387 423.416 277.021C421.402 276.655 419.493 277.817 419.153 279.615C418.813 281.414 420.17 283.169 422.184 283.535Z" fill="#33332D"/>
<path d="M420.116 295.188C422.13 295.554 424.038 294.392 424.378 292.594C424.719 290.795 423.361 289.04 421.347 288.674C419.333 288.308 417.424 289.47 417.084 291.268C416.744 293.067 418.101 294.822 420.116 295.188Z" fill="#33332D"/>
<path d="M407.092 292.822C409.106 293.188 411.014 292.026 411.355 290.228C411.695 288.429 410.337 286.674 408.323 286.308C406.309 285.942 404.4 287.104 404.06 288.902C403.72 290.701 405.077 292.456 407.092 292.822Z" fill="#33332D"/>
<path d="M394.068 290.456C396.082 290.821 397.99 289.66 398.331 287.861C398.671 286.063 397.313 284.308 395.299 283.942C393.285 283.576 391.376 284.738 391.036 286.536C390.696 288.335 392.053 290.09 394.068 290.456Z" fill="#33332D"/>
<path d="M381.041 288.101C383.056 288.467 384.964 287.306 385.304 285.507C385.644 283.709 384.287 281.954 382.273 281.588C380.259 281.222 378.35 282.383 378.01 284.182C377.67 285.981 379.027 287.735 381.041 288.101Z" fill="#33332D"/>
<path d="M378.67 299.29C380.684 299.656 382.593 298.495 382.933 296.696C383.273 294.898 381.916 293.143 379.901 292.777C377.887 292.411 375.978 293.572 375.638 295.371C375.298 297.17 376.655 298.924 378.67 299.29Z" fill="#33332D"/>
<path d="M391.696 301.645C393.71 302.011 395.619 300.849 395.959 299.051C396.299 297.252 394.942 295.497 392.927 295.131C390.913 294.766 389.005 295.927 388.665 297.726C388.324 299.524 389.682 301.279 391.696 301.645Z" fill="#33332D"/>
<path d="M404.72 304.011C406.734 304.377 408.643 303.215 408.983 301.417C409.323 299.618 407.966 297.863 405.951 297.497C403.937 297.131 402.029 298.293 401.689 300.091C401.348 301.89 402.706 303.645 404.72 304.011Z" fill="#33332D"/>
<path d="M417.744 306.377C419.758 306.743 421.667 305.581 422.007 303.783C422.347 301.984 420.99 300.229 418.975 299.864C416.961 299.498 415.053 300.659 414.712 302.458C414.372 304.256 415.73 306.011 417.744 306.377Z" fill="#33332D"/>
<path d="M415.586 318.29C417.6 318.656 419.508 317.495 419.849 315.696C420.189 313.898 418.831 312.143 416.817 311.777C414.803 311.411 412.894 312.573 412.554 314.371C412.214 316.17 413.571 317.924 415.586 318.29Z" fill="#33332D"/>
<path d="M402.562 315.924C404.576 316.29 406.484 315.129 406.825 313.33C407.165 311.532 405.807 309.777 403.793 309.411C401.779 309.045 399.87 310.207 399.53 312.005C399.19 313.804 400.547 315.558 402.562 315.924Z" fill="#33332D"/>
<path d="M389.538 313.558C391.552 313.924 393.46 312.763 393.8 310.964C394.141 309.166 392.783 307.411 390.769 307.045C388.755 306.679 386.846 307.84 386.506 309.639C386.166 311.438 387.523 313.192 389.538 313.558Z" fill="#33332D"/>
<path d="M376.511 311.204C378.526 311.57 380.434 310.408 380.774 308.61C381.114 306.811 379.757 305.057 377.743 304.691C375.729 304.325 373.82 305.486 373.48 307.285C373.14 309.083 374.497 310.838 376.511 311.204Z" fill="#33332D"/>
<path d="M374.456 322.859C376.47 323.225 378.379 322.064 378.719 320.265C379.059 318.467 377.702 316.712 375.687 316.346C373.673 315.98 371.764 317.142 371.424 318.94C371.084 320.739 372.441 322.493 374.456 322.859Z" fill="#33332D"/>
<path d="M387.482 325.214C389.496 325.58 391.405 324.418 391.745 322.62C392.085 320.821 390.728 319.066 388.713 318.701C386.699 318.335 384.791 319.496 384.45 321.295C384.11 323.093 385.468 324.848 387.482 325.214Z" fill="#33332D"/>
<path d="M400.506 327.58C402.52 327.946 404.429 326.784 404.769 324.986C405.109 323.187 403.752 321.432 401.737 321.067C399.723 320.701 397.815 321.862 397.474 323.661C397.134 325.459 398.492 327.214 400.506 327.58Z" fill="#33332D"/>
<path d="M413.53 329.946C415.544 330.312 417.453 329.15 417.793 327.352C418.133 325.553 416.776 323.799 414.761 323.433C412.747 323.067 410.839 324.228 410.498 326.027C410.158 327.825 411.516 329.58 413.53 329.946Z" fill="#33332D"/>
<path d="M411.158 341.135C413.173 341.501 415.081 340.34 415.421 338.541C415.761 336.742 414.404 334.988 412.39 334.622C410.376 334.256 408.467 335.417 408.127 337.216C407.787 339.014 409.144 340.769 411.158 341.135Z" fill="#33332D"/>
<path d="M398.134 338.769C400.148 339.135 402.057 337.973 402.397 336.175C402.737 334.376 401.38 332.622 399.366 332.256C397.351 331.89 395.443 333.051 395.103 334.85C394.763 336.648 396.12 338.403 398.134 338.769Z" fill="#33332D"/>
<path d="M385.11 336.403C387.125 336.769 389.033 335.607 389.373 333.809C389.713 332.01 388.356 330.255 386.342 329.89C384.328 329.524 382.419 330.685 382.079 332.484C381.739 334.282 383.096 336.037 385.11 336.403Z" fill="#33332D"/>
<path d="M372.084 334.048C374.098 334.414 376.007 333.253 376.347 331.454C376.687 329.656 375.33 327.901 373.316 327.535C371.301 327.169 369.393 328.331 369.053 330.129C368.713 331.928 370.07 333.683 372.084 334.048Z" fill="#33332D"/>
<path d="M370.177 345.49C372.191 345.856 374.099 344.695 374.439 342.896C374.78 341.098 373.422 339.343 371.408 338.977C369.394 338.611 367.485 339.773 367.145 341.571C366.805 343.37 368.162 345.124 370.177 345.49Z" fill="#33332D"/>
<path d="M383.201 347.856C385.215 348.222 387.123 347.061 387.463 345.262C387.804 343.464 386.446 341.709 384.432 341.343C382.418 340.977 380.509 342.138 380.169 343.937C379.829 345.736 381.186 347.49 383.201 347.856Z" fill="#33332D"/>
<path d="M396.225 350.222C398.239 350.588 400.147 349.427 400.488 347.628C400.828 345.83 399.47 344.075 397.456 343.709C395.442 343.343 393.533 344.505 393.193 346.303C392.853 348.102 394.21 349.856 396.225 350.222Z" fill="#33332D"/>
<path d="M409.249 352.588C411.263 352.954 413.171 351.793 413.511 349.994C413.852 348.196 412.494 346.441 410.48 346.075C408.466 345.709 406.557 346.871 406.217 348.669C405.877 350.468 407.234 352.223 409.249 352.588Z" fill="#33332D"/>
<path d="M407.193 364.244C409.207 364.61 411.116 363.449 411.456 361.65C411.796 359.851 410.439 358.097 408.424 357.731C406.41 357.365 404.501 358.526 404.161 360.325C403.821 362.123 405.179 363.878 407.193 364.244Z" fill="#33332D"/>
<path d="M394.169 361.878C396.183 362.244 398.092 361.082 398.432 359.284C398.772 357.485 397.415 355.731 395.4 355.365C393.386 354.999 391.478 356.16 391.137 357.959C390.797 359.757 392.155 361.512 394.169 361.878Z" fill="#33332D"/>
<path d="M381.145 359.512C383.159 359.878 385.068 358.716 385.408 356.918C385.748 355.119 384.391 353.364 382.376 352.999C380.362 352.633 378.454 353.794 378.113 355.593C377.773 357.391 379.131 359.146 381.145 359.512Z" fill="#33332D"/>
<path d="M368.121 357.146C370.135 357.512 372.044 356.35 372.384 354.552C372.724 352.753 371.367 350.998 369.352 350.632C367.338 350.266 365.43 351.428 365.089 353.226C364.749 355.025 366.107 356.78 368.121 357.146Z" fill="#33332D"/>
<path d="M365.516 369.495C367.531 369.861 369.439 368.7 369.779 366.901C370.119 365.103 368.762 363.348 366.748 362.982C364.734 362.616 362.825 363.778 362.485 365.576C362.145 367.375 363.502 369.129 365.516 369.495Z" fill="#33332D"/>
<path d="M378.54 371.861C380.555 372.227 382.463 371.066 382.803 369.267C383.143 367.469 381.786 365.714 379.772 365.348C377.758 364.982 375.849 366.144 375.509 367.942C375.169 369.741 376.526 371.495 378.54 371.861Z" fill="#33332D"/>
<path d="M391.564 374.228C393.579 374.593 395.487 373.432 395.827 371.633C396.167 369.835 394.81 368.08 392.796 367.714C390.782 367.348 388.873 368.51 388.533 370.308C388.193 372.107 389.55 373.862 391.564 374.228Z" fill="#33332D"/>
<path d="M404.588 376.593C406.603 376.959 408.511 375.798 408.851 373.999C409.191 372.201 407.834 370.446 405.82 370.08C403.806 369.714 401.897 370.876 401.557 372.674C401.217 374.473 402.574 376.228 404.588 376.593Z" fill="#33332D"/>
<path d="M435.206 285.912C437.22 286.278 439.129 285.117 439.469 283.318C439.809 281.52 438.452 279.765 436.438 279.399C434.423 279.033 432.515 280.194 432.175 281.993C431.835 283.792 433.192 285.546 435.206 285.912Z" fill="#33332D"/>
<path d="M448.232 288.267C450.247 288.633 452.155 287.471 452.495 285.673C452.835 283.874 451.478 282.119 449.464 281.753C447.45 281.387 445.541 282.549 445.201 284.347C444.861 286.146 446.218 287.901 448.232 288.267Z" fill="#33332D"/>
<path d="M433.14 297.554C435.154 297.92 437.062 296.758 437.403 294.96C437.743 293.161 436.385 291.406 434.371 291.04C432.357 290.674 430.448 291.836 430.108 293.634C429.768 295.433 431.125 297.188 433.14 297.554Z" fill="#33332D"/>
<path d="M446.164 299.92C448.178 300.286 450.086 299.124 450.427 297.326C450.767 295.527 449.409 293.772 447.395 293.406C445.381 293.041 443.472 294.202 443.132 296.001C442.792 297.799 444.149 299.554 446.164 299.92Z" fill="#33332D"/>
<path d="M430.768 308.743C432.782 309.109 434.691 307.947 435.031 306.149C435.371 304.35 434.014 302.596 432 302.23C429.985 301.864 428.077 303.025 427.737 304.824C427.396 306.622 428.754 308.377 430.768 308.743Z" fill="#33332D"/>
<path d="M443.792 311.109C445.806 311.475 447.715 310.313 448.055 308.515C448.395 306.716 447.038 304.961 445.023 304.596C443.009 304.23 441.101 305.391 440.761 307.19C440.42 308.988 441.778 310.743 443.792 311.109Z" fill="#33332D"/>
<path d="M428.61 320.656C430.624 321.022 432.532 319.861 432.873 318.062C433.213 316.264 431.855 314.509 429.841 314.143C427.827 313.777 425.918 314.939 425.578 316.737C425.238 318.536 426.595 320.291 428.61 320.656Z" fill="#33332D"/>
<path d="M441.634 323.023C443.648 323.388 445.556 322.227 445.897 320.428C446.237 318.63 444.879 316.875 442.865 316.509C440.851 316.143 438.942 317.305 438.602 319.103C438.262 320.902 439.619 322.657 441.634 323.023Z" fill="#33332D"/>
<path d="M426.554 332.312C428.568 332.678 430.477 331.517 430.817 329.718C431.157 327.919 429.8 326.165 427.785 325.799C425.771 325.433 423.863 326.594 423.522 328.393C423.182 330.191 424.54 331.946 426.554 332.312Z" fill="#33332D"/>
<path d="M439.578 334.678C441.592 335.044 443.501 333.883 443.841 332.084C444.181 330.285 442.824 328.531 440.809 328.165C438.795 327.799 436.887 328.96 436.547 330.759C436.206 332.557 437.564 334.312 439.578 334.678Z" fill="#33332D"/>
<path d="M424.182 343.501C426.197 343.867 428.105 342.705 428.445 340.907C428.785 339.108 427.428 337.354 425.414 336.988C423.4 336.622 421.491 337.783 421.151 339.582C420.811 341.38 422.168 343.135 424.182 343.501Z" fill="#33332D"/>
<path d="M437.206 345.867C439.221 346.233 441.129 345.072 441.469 343.273C441.809 341.474 440.452 339.72 438.438 339.354C436.424 338.988 434.515 340.149 434.175 341.948C433.835 343.746 435.192 345.501 437.206 345.867Z" fill="#33332D"/>
<path d="M422.273 354.955C424.287 355.32 426.195 354.159 426.535 352.36C426.876 350.562 425.518 348.807 423.504 348.441C421.49 348.075 419.581 349.237 419.241 351.035C418.901 352.834 420.258 354.589 422.273 354.955Z" fill="#33332D"/>
<path d="M432.896 369.587C434.911 369.953 436.819 368.792 437.159 366.993C437.499 365.194 436.142 363.44 434.128 363.074C432.114 362.708 430.205 363.869 429.865 365.668C429.525 367.466 430.882 369.221 432.896 369.587Z" fill="#33332D"/>
<path d="M420.217 366.61C422.231 366.976 424.14 365.814 424.48 364.016C424.82 362.217 423.463 360.463 421.448 360.097C419.434 359.731 417.526 360.892 417.185 362.691C416.845 364.489 418.203 366.244 420.217 366.61Z" fill="#33332D"/>
<path d="M435.323 357.963C437.338 358.329 439.246 357.168 439.586 355.369C439.926 353.57 438.569 351.816 436.555 351.45C434.541 351.084 432.632 352.245 432.292 354.044C431.952 355.842 433.309 357.597 435.323 357.963Z" fill="#33332D"/>
<path d="M417.612 378.96C419.627 379.325 421.535 378.164 421.875 376.365C422.215 374.567 420.858 372.812 418.844 372.446C416.83 372.08 414.921 373.242 414.581 375.04C414.241 376.839 415.598 378.594 417.612 378.96Z" fill="#33332D"/>
<path d="M430.636 381.326C432.651 381.692 434.559 380.53 434.899 378.732C435.239 376.933 433.882 375.178 431.868 374.812C429.854 374.446 427.945 375.608 427.605 377.406C427.265 379.205 428.622 380.96 430.636 381.326Z" fill="#33332D"/>
<path d="M314.169 334.907L309.556 359.303L318.153 360.865L322.766 336.469L314.169 334.907Z" fill="#33332D"/>
<path d="M335.162 295.127L322.641 361.344L331.239 362.906L343.759 296.689L335.162 295.127Z" fill="#33332D"/>
<path d="M343.869 320.321L335.632 363.885L344.229 365.447L352.467 321.883L343.869 320.321Z" fill="#33332D"/>
<path d="M354.719 334.188L348.623 366.426L357.22 367.988L363.316 335.75L354.719 334.188Z" fill="#33332D"/>
<path d="M378.473 279.804L361.669 368.674L370.267 370.236L387.071 281.366L378.473 279.804Z" fill="#33332D"/>
<path d="M384.769 317.755L374.719 370.903L383.317 372.464L393.366 319.316L384.769 317.755Z" fill="#33332D"/>
<path d="M406.504 274.052L387.723 373.378L396.32 374.94L415.101 275.614L406.504 274.052Z" fill="#33332D"/>
<path d="M404.87 353.939L400.751 375.721L409.348 377.283L413.467 355.501L404.87 353.939Z" fill="#33332D"/>
<path d="M426.292 311.887L413.772 378.104L422.369 379.666L434.89 313.449L426.292 311.887Z" fill="#33332D"/>
<path d="M441.611 302.118L426.784 380.534L435.381 382.095L450.208 303.68L441.611 302.118Z" fill="#33332D"/>
</g>
<g clip-path="url(#clip4_101_1909)">
<path d="M84.3843 288.093C86.3626 288.093 87.9663 286.523 87.9663 284.585C87.9663 282.647 86.3626 281.077 84.3843 281.077C82.406 281.077 80.8023 282.647 80.8023 284.585C80.8023 286.523 82.406 288.093 84.3843 288.093Z" fill="#33332D"/>
<path d="M84.5122 300.624C86.4905 300.624 88.0942 299.053 88.0942 297.115C88.0942 295.177 86.4905 293.607 84.5122 293.607C82.5339 293.607 80.9302 295.177 80.9302 297.115C80.9302 299.053 82.5339 300.624 84.5122 300.624Z" fill="#33332D"/>
<path d="M84.2692 312.728C86.2475 312.728 87.8512 311.157 87.8512 309.219C87.8512 307.282 86.2475 305.711 84.2692 305.711C82.2909 305.711 80.6871 307.282 80.6871 309.219C80.6871 311.157 82.2909 312.728 84.2692 312.728Z" fill="#33332D"/>
<path d="M84.3587 325.546C86.337 325.546 87.9407 323.975 87.9407 322.038C87.9407 320.1 86.337 318.529 84.3587 318.529C82.3804 318.529 80.7767 320.1 80.7767 322.038C80.7767 323.975 82.3804 325.546 84.3587 325.546Z" fill="#33332D"/>
<path d="M84.4995 338.076C86.4778 338.076 88.0815 336.505 88.0815 334.568C88.0815 332.63 86.4778 331.059 84.4995 331.059C82.5212 331.059 80.9174 332.63 80.9174 334.568C80.9174 336.505 82.5212 338.076 84.4995 338.076Z" fill="#33332D"/>
<path d="M84.2564 350.18C86.2347 350.18 87.8384 348.61 87.8384 346.672C87.8384 344.734 86.2347 343.163 84.2564 343.163C82.2781 343.163 80.6744 344.734 80.6744 346.672C80.6744 348.61 82.2781 350.18 84.2564 350.18Z" fill="#33332D"/>
<path d="M84.4995 362.472C86.4778 362.472 88.0815 360.902 88.0815 358.964C88.0815 357.026 86.4778 355.456 84.4995 355.456C82.5212 355.456 80.9174 357.026 80.9174 358.964C80.9174 360.902 82.5212 362.472 84.4995 362.472Z" fill="#33332D"/>
<path d="M84.6402 375.003C86.6185 375.003 88.2222 373.432 88.2222 371.494C88.2222 369.556 86.6185 367.986 84.6402 367.986C82.6619 367.986 81.0582 369.556 81.0582 371.494C81.0582 373.432 82.6619 375.003 84.6402 375.003Z" fill="#33332D"/>
<path d="M84.3843 388.36C86.3626 388.36 87.9663 386.789 87.9663 384.851C87.9663 382.914 86.3626 381.343 84.3843 381.343C82.406 381.343 80.8023 382.914 80.8023 384.851C80.8023 386.789 82.406 388.36 84.3843 388.36Z" fill="#33332D"/>
<path d="M97.1645 288.081C99.1428 288.081 100.746 286.51 100.746 284.572C100.746 282.635 99.1428 281.064 97.1645 281.064C95.1862 281.064 93.5824 282.635 93.5824 284.572C93.5824 286.51 95.1862 288.081 97.1645 288.081Z" fill="#33332D"/>
<path d="M97.2924 300.611C99.2707 300.611 100.874 299.04 100.874 297.103C100.874 295.165 99.2707 293.594 97.2924 293.594C95.3141 293.594 93.7104 295.165 93.7104 297.103C93.7104 299.04 95.3141 300.611 97.2924 300.611Z" fill="#33332D"/>
<path d="M97.0494 313.968C99.0277 313.968 100.631 312.397 100.631 310.46C100.631 308.522 99.0277 306.951 97.0494 306.951C95.0711 306.951 93.4673 308.522 93.4673 310.46C93.4673 312.397 95.0711 313.968 97.0494 313.968Z" fill="#33332D"/>
<path d="M97.1389 325.546C99.1172 325.546 100.721 323.975 100.721 322.038C100.721 320.1 99.1172 318.529 97.1389 318.529C95.1606 318.529 93.5568 320.1 93.5568 322.038C93.5568 323.975 95.1606 325.546 97.1389 325.546Z" fill="#33332D"/>
<path d="M97.2796 338.076C99.2579 338.076 100.862 336.505 100.862 334.568C100.862 332.63 99.2579 331.059 97.2796 331.059C95.3013 331.059 93.6976 332.63 93.6976 334.568C93.6976 336.505 95.3013 338.076 97.2796 338.076Z" fill="#33332D"/>
<path d="M97.0365 350.168C99.0148 350.168 100.619 348.597 100.619 346.659C100.619 344.722 99.0148 343.151 97.0365 343.151C95.0582 343.151 93.4545 344.722 93.4545 346.659C93.4545 348.597 95.0582 350.168 97.0365 350.168Z" fill="#33332D"/>
<path d="M97.2796 362.472C99.2579 362.472 100.862 360.902 100.862 358.964C100.862 357.026 99.2579 355.456 97.2796 355.456C95.3013 355.456 93.6976 357.026 93.6976 358.964C93.6976 360.902 95.3013 362.472 97.2796 362.472Z" fill="#33332D"/>
<path d="M97.4203 375.003C99.3986 375.003 101.002 373.432 101.002 371.494C101.002 369.556 99.3986 367.986 97.4203 367.986C95.442 367.986 93.8383 369.556 93.8383 371.494C93.8383 373.432 95.442 375.003 97.4203 375.003Z" fill="#33332D"/>
<path d="M97.1645 388.36C99.1428 388.36 100.746 386.789 100.746 384.851C100.746 382.914 99.1428 381.343 97.1645 381.343C95.1862 381.343 93.5824 382.914 93.5824 384.851C93.5824 386.789 95.1862 388.36 97.1645 388.36Z" fill="#33332D"/>
<path d="M109.97 288.093C111.948 288.093 113.552 286.523 113.552 284.585C113.552 282.647 111.948 281.077 109.97 281.077C107.992 281.077 106.388 282.647 106.388 284.585C106.388 286.523 107.992 288.093 109.97 288.093Z" fill="#33332D"/>
<path d="M122.763 288.081C124.741 288.081 126.345 286.51 126.345 284.572C126.345 282.635 124.741 281.064 122.763 281.064C120.785 281.064 119.181 282.635 119.181 284.572C119.181 286.51 120.785 288.081 122.763 288.081Z" fill="#33332D"/>
<path d="M110.098 300.611C112.076 300.611 113.68 299.04 113.68 297.103C113.68 295.165 112.076 293.594 110.098 293.594C108.12 293.594 106.516 295.165 106.516 297.103C106.516 299.04 108.12 300.611 110.098 300.611Z" fill="#33332D"/>
<path d="M122.891 300.611C124.869 300.611 126.473 299.04 126.473 297.103C126.473 295.165 124.869 293.594 122.891 293.594C120.913 293.594 119.309 295.165 119.309 297.103C119.309 299.04 120.913 300.611 122.891 300.611Z" fill="#33332D"/>
<path d="M109.855 312.715C111.833 312.715 113.437 311.144 113.437 309.207C113.437 307.269 111.833 305.698 109.855 305.698C107.877 305.698 106.273 307.269 106.273 309.207C106.273 311.144 107.877 312.715 109.855 312.715Z" fill="#33332D"/>
<path d="M122.648 312.715C124.626 312.715 126.23 311.144 126.23 309.207C126.23 307.269 124.626 305.698 122.648 305.698C120.67 305.698 119.066 307.269 119.066 309.207C119.066 311.144 120.67 312.715 122.648 312.715Z" fill="#33332D"/>
<path d="M109.945 325.533C111.923 325.533 113.527 323.963 113.527 322.025C113.527 320.087 111.923 318.517 109.945 318.517C107.966 318.517 106.363 320.087 106.363 322.025C106.363 323.963 107.966 325.533 109.945 325.533Z" fill="#33332D"/>
<path d="M122.738 325.533C124.716 325.533 126.32 323.963 126.32 322.025C126.32 320.087 124.716 318.517 122.738 318.517C120.759 318.517 119.156 320.087 119.156 322.025C119.156 323.963 120.759 325.533 122.738 325.533Z" fill="#33332D"/>
<path d="M110.085 338.064C112.064 338.064 113.667 336.493 113.667 334.555C113.667 332.618 112.064 331.047 110.085 331.047C108.107 331.047 106.503 332.618 106.503 334.555C106.503 336.493 108.107 338.064 110.085 338.064Z" fill="#33332D"/>
<path d="M122.878 338.064C124.857 338.064 126.46 336.493 126.46 334.555C126.46 332.618 124.857 331.047 122.878 331.047C120.9 331.047 119.296 332.618 119.296 334.555C119.296 336.493 120.9 338.064 122.878 338.064Z" fill="#33332D"/>
<path d="M109.842 350.168C111.821 350.168 113.424 348.597 113.424 346.659C113.424 344.722 111.821 343.151 109.842 343.151C107.864 343.151 106.26 344.722 106.26 346.659C106.26 348.597 107.864 350.168 109.842 350.168Z" fill="#33332D"/>
<path d="M122.635 350.168C124.614 350.168 126.217 348.597 126.217 346.659C126.217 344.722 124.614 343.151 122.635 343.151C120.657 343.151 119.053 344.722 119.053 346.659C119.053 348.597 120.657 350.168 122.635 350.168Z" fill="#33332D"/>
<path d="M110.085 362.46C112.064 362.46 113.667 360.889 113.667 358.952C113.667 357.014 112.064 355.443 110.085 355.443C108.107 355.443 106.503 357.014 106.503 358.952C106.503 360.889 108.107 362.46 110.085 362.46Z" fill="#33332D"/>
<path d="M122.878 362.46C124.857 362.46 126.46 360.889 126.46 358.952C126.46 357.014 124.857 355.443 122.878 355.443C120.9 355.443 119.296 357.014 119.296 358.952C119.296 360.889 120.9 362.46 122.878 362.46Z" fill="#33332D"/>
<path d="M110.226 374.99C112.204 374.99 113.808 373.419 113.808 371.482C113.808 369.544 112.204 367.973 110.226 367.973C108.248 367.973 106.644 369.544 106.644 371.482C106.644 373.419 108.248 374.99 110.226 374.99Z" fill="#33332D"/>
<path d="M123.019 374.99C124.997 374.99 126.601 373.419 126.601 371.482C126.601 369.544 124.997 367.973 123.019 367.973C121.041 367.973 119.437 369.544 119.437 371.482C119.437 373.419 121.041 374.99 123.019 374.99Z" fill="#33332D"/>
<path d="M109.97 388.347C111.948 388.347 113.552 386.776 113.552 384.839C113.552 382.901 111.948 381.33 109.97 381.33C107.992 381.33 106.388 382.901 106.388 384.839C106.388 386.776 107.992 388.347 109.97 388.347Z" fill="#33332D"/>
<path d="M122.763 388.347C124.741 388.347 126.345 386.776 126.345 384.839C126.345 382.901 124.741 381.33 122.763 381.33C120.785 381.33 119.181 382.901 119.181 384.839C119.181 386.776 120.785 388.347 122.763 388.347Z" fill="#33332D"/>
<path d="M135.288 288.369C137.266 288.369 138.87 286.798 138.87 284.861C138.87 282.923 137.266 281.352 135.288 281.352C133.309 281.352 131.705 282.923 131.705 284.861C131.705 286.798 133.309 288.369 135.288 288.369Z" fill="#33332D"/>
<path d="M148.08 288.356C150.059 288.356 151.663 286.786 151.663 284.848C151.663 282.91 150.059 281.34 148.08 281.34C146.102 281.34 144.498 282.91 144.498 284.848C144.498 286.786 146.102 288.356 148.08 288.356Z" fill="#33332D"/>
<path d="M160.873 288.369C162.852 288.369 164.455 286.798 164.455 284.861C164.455 282.923 162.852 281.352 160.873 281.352C158.895 281.352 157.291 282.923 157.291 284.861C157.291 286.798 158.895 288.369 160.873 288.369Z" fill="#33332D"/>
<path d="M173.666 288.356C175.645 288.356 177.248 286.786 177.248 284.848C177.248 282.91 175.645 281.34 173.666 281.34C171.688 281.34 170.084 282.91 170.084 284.848C170.084 286.786 171.688 288.356 173.666 288.356Z" fill="#33332D"/>
<path d="M173.794 300.887C175.773 300.887 177.376 299.316 177.376 297.378C177.376 295.441 175.773 293.87 173.794 293.87C171.816 293.87 170.212 295.441 170.212 297.378C170.212 299.316 171.816 300.887 173.794 300.887Z" fill="#33332D"/>
<path d="M161.001 300.887C162.98 300.887 164.583 299.316 164.583 297.378C164.583 295.441 162.98 293.87 161.001 293.87C159.023 293.87 157.419 295.441 157.419 297.378C157.419 299.316 159.023 300.887 161.001 300.887Z" fill="#33332D"/>
<path d="M148.208 300.887C150.187 300.887 151.79 299.316 151.79 297.378C151.79 295.441 150.187 293.87 148.208 293.87C146.23 293.87 144.626 295.441 144.626 297.378C144.626 299.316 146.23 300.887 148.208 300.887Z" fill="#33332D"/>
<path d="M135.415 300.899C137.394 300.899 138.997 299.328 138.997 297.391C138.997 295.453 137.394 293.882 135.415 293.882C133.437 293.882 131.833 295.453 131.833 297.391C131.833 299.328 133.437 300.899 135.415 300.899Z" fill="#33332D"/>
<path d="M135.172 313.003C137.151 313.003 138.754 311.433 138.754 309.495C138.754 307.557 137.151 305.986 135.172 305.986C133.194 305.986 131.59 307.557 131.59 309.495C131.59 311.433 133.194 313.003 135.172 313.003Z" fill="#33332D"/>
<path d="M147.965 312.991C149.944 312.991 151.547 311.42 151.547 309.482C151.547 307.545 149.944 305.974 147.965 305.974C145.987 305.974 144.383 307.545 144.383 309.482C144.383 311.42 145.987 312.991 147.965 312.991Z" fill="#33332D"/>
<path d="M160.758 312.991C162.737 312.991 164.34 311.42 164.34 309.482C164.34 307.545 162.737 305.974 160.758 305.974C158.78 305.974 157.176 307.545 157.176 309.482C157.176 311.42 158.78 312.991 160.758 312.991Z" fill="#33332D"/>
<path d="M173.551 312.991C175.53 312.991 177.133 311.42 177.133 309.482C177.133 307.545 175.53 305.974 173.551 305.974C171.573 305.974 169.969 307.545 169.969 309.482C169.969 311.42 171.573 312.991 173.551 312.991Z" fill="#33332D"/>
<path d="M173.641 325.809C175.619 325.809 177.223 324.238 177.223 322.301C177.223 320.363 175.619 318.792 173.641 318.792C171.662 318.792 170.059 320.363 170.059 322.301C170.059 324.238 171.662 325.809 173.641 325.809Z" fill="#33332D"/>
<path d="M160.848 325.809C162.826 325.809 164.43 324.238 164.43 322.301C164.43 320.363 162.826 318.792 160.848 318.792C158.87 318.792 157.266 320.363 157.266 322.301C157.266 324.238 158.87 325.809 160.848 325.809Z" fill="#33332D"/>
<path d="M148.055 325.809C150.033 325.809 151.637 324.238 151.637 322.301C151.637 320.363 150.033 318.792 148.055 318.792C146.077 318.792 144.473 320.363 144.473 322.301C144.473 324.238 146.077 325.809 148.055 325.809Z" fill="#33332D"/>
<path d="M135.262 325.822C137.24 325.822 138.844 324.251 138.844 322.313C138.844 320.376 137.24 318.805 135.262 318.805C133.284 318.805 131.68 320.376 131.68 322.313C131.68 324.251 133.284 325.822 135.262 325.822Z" fill="#33332D"/>
<path d="M135.403 338.352C137.381 338.352 138.985 336.781 138.985 334.844C138.985 332.906 137.381 331.335 135.403 331.335C133.424 331.335 131.821 332.906 131.821 334.844C131.821 336.781 133.424 338.352 135.403 338.352Z" fill="#33332D"/>
<path d="M148.196 338.339C150.174 338.339 151.778 336.769 151.778 334.831C151.778 332.893 150.174 331.323 148.196 331.323C146.217 331.323 144.614 332.893 144.614 334.831C144.614 336.769 146.217 338.339 148.196 338.339Z" fill="#33332D"/>
<path d="M160.989 338.339C162.967 338.339 164.571 336.769 164.571 334.831C164.571 332.893 162.967 331.323 160.989 331.323C159.01 331.323 157.407 332.893 157.407 334.831C157.407 336.769 159.01 338.339 160.989 338.339Z" fill="#33332D"/>
<path d="M173.781 338.339C175.76 338.339 177.364 336.769 177.364 334.831C177.364 332.893 175.76 331.323 173.781 331.323C171.803 331.323 170.199 332.893 170.199 334.831C170.199 336.769 171.803 338.339 173.781 338.339Z" fill="#33332D"/>
<path d="M173.538 350.443C175.517 350.443 177.12 348.873 177.12 346.935C177.12 344.997 175.517 343.427 173.538 343.427C171.56 343.427 169.956 344.997 169.956 346.935C169.956 348.873 171.56 350.443 173.538 350.443Z" fill="#33332D"/>
<path d="M160.745 350.443C162.724 350.443 164.327 348.873 164.327 346.935C164.327 344.997 162.724 343.427 160.745 343.427C158.767 343.427 157.163 344.997 157.163 346.935C157.163 348.873 158.767 350.443 160.745 350.443Z" fill="#33332D"/>
<path d="M147.952 350.443C149.931 350.443 151.535 348.873 151.535 346.935C151.535 344.997 149.931 343.427 147.952 343.427C145.974 343.427 144.37 344.997 144.37 346.935C144.37 348.873 145.974 350.443 147.952 350.443Z" fill="#33332D"/>
<path d="M135.16 350.456C137.138 350.456 138.742 348.885 138.742 346.948C138.742 345.01 137.138 343.439 135.16 343.439C133.181 343.439 131.578 345.01 131.578 346.948C131.578 348.885 133.181 350.456 135.16 350.456Z" fill="#33332D"/>
<path d="M135.403 362.736C137.381 362.736 138.985 361.165 138.985 359.227C138.985 357.289 137.381 355.719 135.403 355.719C133.424 355.719 131.821 357.289 131.821 359.227C131.821 361.165 133.424 362.736 135.403 362.736Z" fill="#33332D"/>
<path d="M148.196 362.736C150.174 362.736 151.778 361.165 151.778 359.227C151.778 357.289 150.174 355.719 148.196 355.719C146.217 355.719 144.614 357.289 144.614 359.227C144.614 361.165 146.217 362.736 148.196 362.736Z" fill="#33332D"/>
<path d="M160.989 362.736C162.967 362.736 164.571 361.165 164.571 359.227C164.571 357.289 162.967 355.719 160.989 355.719C159.01 355.719 157.407 357.289 157.407 359.227C157.407 361.165 159.01 362.736 160.989 362.736Z" fill="#33332D"/>
<path d="M173.781 362.736C175.76 362.736 177.364 361.165 177.364 359.227C177.364 357.289 175.76 355.719 173.781 355.719C171.803 355.719 170.199 357.289 170.199 359.227C170.199 361.165 171.803 362.736 173.781 362.736Z" fill="#33332D"/>
<path d="M173.922 375.266C175.9 375.266 177.504 373.695 177.504 371.757C177.504 369.82 175.9 368.249 173.922 368.249C171.944 368.249 170.34 369.82 170.34 371.757C170.34 373.695 171.944 375.266 173.922 375.266Z" fill="#33332D"/>
<path d="M161.129 375.266C163.108 375.266 164.711 373.695 164.711 371.757C164.711 369.82 163.108 368.249 161.129 368.249C159.151 368.249 157.547 369.82 157.547 371.757C157.547 373.695 159.151 375.266 161.129 375.266Z" fill="#33332D"/>
<path d="M148.336 375.266C150.315 375.266 151.918 373.695 151.918 371.757C151.918 369.82 150.315 368.249 148.336 368.249C146.358 368.249 144.754 369.82 144.754 371.757C144.754 373.695 146.358 375.266 148.336 375.266Z" fill="#33332D"/>
<path d="M135.543 375.266C137.522 375.266 139.125 373.695 139.125 371.757C139.125 369.82 137.522 368.249 135.543 368.249C133.565 368.249 131.961 369.82 131.961 371.757C131.961 373.695 133.565 375.266 135.543 375.266Z" fill="#33332D"/>
<path d="M135.288 388.623C137.266 388.623 138.87 387.052 138.87 385.114C138.87 383.177 137.266 381.606 135.288 381.606C133.309 381.606 131.705 383.177 131.705 385.114C131.705 387.052 133.309 388.623 135.288 388.623Z" fill="#33332D"/>
<path d="M148.08 388.623C150.059 388.623 151.663 387.052 151.663 385.114C151.663 383.177 150.059 381.606 148.08 381.606C146.102 381.606 144.498 383.177 144.498 385.114C144.498 387.052 146.102 388.623 148.08 388.623Z" fill="#33332D"/>
<path d="M160.873 388.623C162.852 388.623 164.455 387.052 164.455 385.114C164.455 383.177 162.852 381.606 160.873 381.606C158.895 381.606 157.291 383.177 157.291 385.114C157.291 387.052 158.895 388.623 160.873 388.623Z" fill="#33332D"/>
<path d="M173.666 388.623C175.645 388.623 177.248 387.052 177.248 385.114C177.248 383.177 175.645 381.606 173.666 381.606C171.688 381.606 170.084 383.177 170.084 385.114C170.084 387.052 171.688 388.623 173.666 388.623Z" fill="#33332D"/>
<path d="M186.459 288.369C188.438 288.369 190.041 286.798 190.041 284.861C190.041 282.923 188.438 281.352 186.459 281.352C184.481 281.352 182.877 282.923 182.877 284.861C182.877 286.798 184.481 288.369 186.459 288.369Z" fill="#33332D"/>
<path d="M199.252 288.356C201.231 288.356 202.834 286.786 202.834 284.848C202.834 282.91 201.231 281.34 199.252 281.34C197.274 281.34 195.67 282.91 195.67 284.848C195.67 286.786 197.274 288.356 199.252 288.356Z" fill="#33332D"/>
<path d="M186.587 300.887C188.566 300.887 190.169 299.316 190.169 297.378C190.169 295.441 188.566 293.87 186.587 293.87C184.609 293.87 183.005 295.441 183.005 297.378C183.005 299.316 184.609 300.887 186.587 300.887Z" fill="#33332D"/>
<path d="M199.38 300.887C201.358 300.887 202.962 299.316 202.962 297.378C202.962 295.441 201.358 293.87 199.38 293.87C197.402 293.87 195.798 295.441 195.798 297.378C195.798 299.316 197.402 300.887 199.38 300.887Z" fill="#33332D"/>
<path d="M186.344 312.991C188.322 312.991 189.926 311.42 189.926 309.482C189.926 307.545 188.322 305.974 186.344 305.974C184.366 305.974 182.762 307.545 182.762 309.482C182.762 311.42 184.366 312.991 186.344 312.991Z" fill="#33332D"/>
<path d="M199.137 312.991C201.115 312.991 202.719 311.42 202.719 309.482C202.719 307.545 201.115 305.974 199.137 305.974C197.159 305.974 195.555 307.545 195.555 309.482C195.555 311.42 197.159 312.991 199.137 312.991Z" fill="#33332D"/>
<path d="M186.434 325.809C188.412 325.809 190.016 324.238 190.016 322.301C190.016 320.363 188.412 318.792 186.434 318.792C184.455 318.792 182.852 320.363 182.852 322.301C182.852 324.238 184.455 325.809 186.434 325.809Z" fill="#33332D"/>
<path d="M199.227 325.809C201.205 325.809 202.809 324.238 202.809 322.301C202.809 320.363 201.205 318.792 199.227 318.792C197.248 318.792 195.645 320.363 195.645 322.301C195.645 324.238 197.248 325.809 199.227 325.809Z" fill="#33332D"/>
<path d="M186.574 338.339C188.553 338.339 190.156 336.769 190.156 334.831C190.156 332.893 188.553 331.323 186.574 331.323C184.596 331.323 182.992 332.893 182.992 334.831C182.992 336.769 184.596 338.339 186.574 338.339Z" fill="#33332D"/>
<path d="M199.367 338.339C201.346 338.339 202.949 336.769 202.949 334.831C202.949 332.893 201.346 331.323 199.367 331.323C197.389 331.323 195.785 332.893 195.785 334.831C195.785 336.769 197.389 338.339 199.367 338.339Z" fill="#33332D"/>
<path d="M186.331 350.443C188.31 350.443 189.913 348.873 189.913 346.935C189.913 344.997 188.31 343.427 186.331 343.427C184.353 343.427 182.749 344.997 182.749 346.935C182.749 348.873 184.353 350.443 186.331 350.443Z" fill="#33332D"/>
<path d="M199.124 350.443C201.103 350.443 202.706 348.873 202.706 346.935C202.706 344.997 201.103 343.427 199.124 343.427C197.146 343.427 195.542 344.997 195.542 346.935C195.542 348.873 197.146 350.443 199.124 350.443Z" fill="#33332D"/>
<path d="M186.574 362.736C188.553 362.736 190.156 361.165 190.156 359.227C190.156 357.289 188.553 355.719 186.574 355.719C184.596 355.719 182.992 357.289 182.992 359.227C182.992 361.165 184.596 362.736 186.574 362.736Z" fill="#33332D"/>
<path d="M199.291 375.967C201.269 375.967 202.873 374.397 202.873 372.459C202.873 370.521 201.269 368.95 199.291 368.95C197.312 368.95 195.709 370.521 195.709 372.459C195.709 374.397 197.312 375.967 199.291 375.967Z" fill="#33332D"/>
<path d="M186.715 375.266C188.693 375.266 190.297 373.695 190.297 371.757C190.297 369.82 188.693 368.249 186.715 368.249C184.737 368.249 183.133 369.82 183.133 371.757C183.133 373.695 184.737 375.266 186.715 375.266Z" fill="#33332D"/>
<path d="M199.508 363.4C201.486 363.4 203.09 361.829 203.09 359.891C203.09 357.954 201.486 356.383 199.508 356.383C197.53 356.383 195.926 357.954 195.926 359.891C195.926 361.829 197.53 363.4 199.508 363.4Z" fill="#33332D"/>
<path d="M186.459 388.623C188.438 388.623 190.041 387.052 190.041 385.114C190.041 383.177 188.438 381.606 186.459 381.606C184.481 381.606 182.877 383.177 182.877 385.114C182.877 387.052 184.481 388.623 186.459 388.623Z" fill="#33332D"/>
<path d="M199.252 388.623C201.231 388.623 202.834 387.052 202.834 385.114C202.834 383.177 201.231 381.606 199.252 381.606C197.274 381.606 195.67 383.177 195.67 385.114C195.67 387.052 197.274 388.623 199.252 388.623Z" fill="#33332D"/>
<path d="M164.696 367.852H112.94V375.637H164.696V367.852Z" fill="#33332D"/>
<path d="M106.285 319.804V348.905H114.73V319.804H106.285Z" fill="#33332D"/>
<path d="M164.495 343.236H106.029V350.534H164.495V343.236Z" fill="#33332D"/>
<path d="M157.212 343.737V372.838H164.663V343.737H157.212Z" fill="#33332D"/>
<path d="M171.636 318.092H106.461V327.337H171.636V318.092Z" fill="#33332D"/>
<path d="M170.025 293.449V327.245H177.973V293.449H170.025Z" fill="#33332D"/>
<path d="M170.316 293.458H113.768V302.702H170.316V293.458Z" fill="#33332D"/>
<path d="M111.481 386.469H83.5896V359.15H111.481V386.469ZM84.2804 385.793H110.791V359.827H84.2804V385.793Z" fill="#33332D" stroke="#33332D" stroke-width="1.89" stroke-linecap="round"/>
<path d="M111.315 311.013H83.4232V283.694H111.315V311.013ZM84.1141 310.336H110.624V284.37H84.1141V310.336Z" fill="#33332D" stroke="#33332D" stroke-width="1.89" stroke-linecap="round"/>
</g>
<g clip-path="url(#clip5_101_1909)">
<path d="M145.81 98.0778C147.79 98.4343 149.673 97.2371 150.017 95.4037C150.361 93.5703 149.034 91.795 147.054 91.4385C145.075 91.082 143.191 92.2792 142.847 94.1126C142.504 95.946 143.83 97.7213 145.81 98.0778Z" fill="#33332D"/>
<path d="M143.716 109.955C145.696 110.312 147.58 109.114 147.923 107.281C148.267 105.448 146.94 103.672 144.961 103.316C142.981 102.959 141.097 104.157 140.754 105.99C140.41 107.823 141.736 109.599 143.716 109.955Z" fill="#653D3D"/>
<path d="M141.327 121.363C143.307 121.719 145.19 120.522 145.534 118.689C145.877 116.855 144.551 115.08 142.571 114.724C140.591 114.367 138.708 115.564 138.364 117.398C138.021 119.231 139.347 121.006 141.327 121.363Z" fill="#33332D"/>
<path d="M139.143 133.506C141.123 133.863 143.007 132.665 143.35 130.832C143.694 128.999 142.368 127.223 140.388 126.867C138.408 126.51 136.524 127.707 136.181 129.541C135.837 131.374 137.164 133.149 139.143 133.506Z" fill="#33332D"/>
<path d="M137.062 145.386C139.042 145.742 140.926 144.545 141.269 142.712C141.613 140.878 140.287 139.103 138.307 138.746C136.327 138.39 134.443 139.587 134.1 141.421C133.756 143.254 135.083 145.029 137.062 145.386Z" fill="#33332D"/>
<path d="M134.673 156.793C136.653 157.15 138.536 155.953 138.88 154.119C139.224 152.286 137.897 150.511 135.917 150.154C133.937 149.798 132.054 150.995 131.71 152.828C131.367 154.662 132.693 156.437 134.673 156.793Z" fill="#33332D"/>
<path d="M132.737 168.466C134.716 168.823 136.6 167.626 136.943 165.792C137.287 163.959 135.961 162.184 133.981 161.827C132.001 161.471 130.118 162.668 129.774 164.501C129.43 166.335 130.757 168.11 132.737 168.466Z" fill="#33332D"/>
<path d="M130.655 180.346C132.635 180.703 134.519 179.505 134.862 177.672C135.206 175.839 133.88 174.063 131.9 173.707C129.92 173.35 128.037 174.548 127.693 176.381C127.349 178.214 128.676 179.99 130.655 180.346Z" fill="#653D3D"/>
<path d="M128.031 192.937C130.011 193.293 131.894 192.096 132.238 190.263C132.582 188.429 131.255 186.654 129.275 186.298C127.296 185.941 125.412 187.138 125.068 188.972C124.725 190.805 126.051 192.58 128.031 192.937Z" fill="#33332D"/>
<path d="M158.601 100.369C160.581 100.725 162.464 99.5281 162.808 97.6947C163.151 95.8613 161.825 94.086 159.845 93.7295C157.865 93.373 155.982 94.5702 155.638 96.4036C155.295 98.237 156.621 100.012 158.601 100.369Z" fill="#33332D"/>
<path d="M156.507 112.246C158.487 112.603 160.37 111.406 160.714 109.572C161.058 107.739 159.731 105.963 157.751 105.607C155.771 105.25 153.888 106.448 153.544 108.281C153.201 110.114 154.527 111.89 156.507 112.246Z" fill="#33332D"/>
<path d="M153.895 124.839C155.875 125.196 157.759 123.999 158.102 122.165C158.446 120.332 157.119 118.556 155.14 118.2C153.16 117.843 151.276 119.041 150.933 120.874C150.589 122.707 151.915 124.483 153.895 124.839Z" fill="#33332D"/>
<path d="M151.932 135.809C153.912 136.165 155.795 134.968 156.139 133.135C156.482 131.301 155.156 129.526 153.176 129.17C151.196 128.813 149.313 130.01 148.969 131.844C148.626 133.677 149.952 135.452 151.932 135.809Z" fill="#33332D"/>
<path d="M149.851 147.689C151.831 148.045 153.714 146.848 154.058 145.015C154.401 143.181 153.075 141.406 151.095 141.049C149.115 140.693 147.232 141.89 146.888 143.723C146.545 145.557 147.871 147.332 149.851 147.689Z" fill="#33332D"/>
<path d="M147.464 159.084C149.443 159.441 151.327 158.244 151.671 156.41C152.014 154.577 150.688 152.802 148.708 152.445C146.728 152.089 144.845 153.286 144.501 155.119C144.157 156.953 145.484 158.728 147.464 159.084Z" fill="#33332D"/>
<path d="M145.525 170.769C147.505 171.126 149.388 169.929 149.732 168.095C150.076 166.262 148.749 164.487 146.769 164.13C144.789 163.774 142.906 164.971 142.562 166.804C142.219 168.638 143.545 170.413 145.525 170.769Z" fill="#33332D"/>
<path d="M143.444 182.649C145.424 183.006 147.307 181.808 147.651 179.975C147.994 178.142 146.668 176.366 144.688 176.01C142.708 175.653 140.825 176.851 140.481 178.684C140.138 180.517 141.464 182.293 143.444 182.649Z" fill="#33332D"/>
<path d="M140.819 195.24C142.799 195.596 144.683 194.399 145.026 192.566C145.37 190.732 144.044 188.957 142.064 188.6C140.084 188.244 138.2 189.441 137.857 191.274C137.513 193.108 138.84 194.883 140.819 195.24Z" fill="#33332D"/>
<path d="M171.412 102.688C173.392 103.045 175.276 101.847 175.619 100.014C175.963 98.1806 174.637 96.4054 172.657 96.0489C170.677 95.6923 168.794 96.8896 168.45 98.723C168.106 100.556 169.433 102.332 171.412 102.688Z" fill="#33332D"/>
<path d="M184.216 104.981C186.196 105.338 188.079 104.141 188.423 102.307C188.767 100.474 187.44 98.6987 185.46 98.3422C183.48 97.9857 181.597 99.1829 181.253 101.016C180.91 102.85 182.236 104.625 184.216 104.981Z" fill="#33332D"/>
<path d="M169.321 114.554C171.301 114.91 173.184 113.713 173.528 111.88C173.871 110.046 172.545 108.271 170.565 107.914C168.585 107.558 166.702 108.755 166.358 110.589C166.015 112.422 167.341 114.197 169.321 114.554Z" fill="#33332D"/>
<path d="M182.122 116.859C184.102 117.215 185.985 116.018 186.329 114.185C186.673 112.351 185.346 110.576 183.367 110.22C181.387 109.863 179.503 111.06 179.16 112.894C178.816 114.727 180.142 116.502 182.122 116.859Z" fill="#33332D"/>
<path d="M166.931 125.961C168.911 126.318 170.795 125.121 171.138 123.287C171.482 121.454 170.156 119.679 168.176 119.322C166.196 118.966 164.312 120.163 163.969 121.996C163.625 123.83 164.952 125.605 166.931 125.961Z" fill="#33332D"/>
<path d="M179.733 128.267C181.712 128.623 183.596 127.426 183.94 125.593C184.283 123.759 182.957 121.984 180.977 121.627C178.997 121.271 177.114 122.468 176.77 124.301C176.426 126.135 177.753 127.91 179.733 128.267Z" fill="#33332D"/>
<path d="M164.748 138.105C166.728 138.461 168.611 137.264 168.955 135.43C169.299 133.597 167.972 131.822 165.992 131.465C164.013 131.109 162.129 132.306 161.785 134.139C161.442 135.973 162.768 137.748 164.748 138.105Z" fill="#33332D"/>
<path d="M177.549 140.41C179.529 140.766 181.413 139.569 181.756 137.736C182.1 135.902 180.774 134.127 178.794 133.77C176.814 133.414 174.93 134.611 174.587 136.445C174.243 138.278 175.57 140.053 177.549 140.41Z" fill="#33332D"/>
<path d="M162.667 149.984C164.647 150.341 166.53 149.144 166.874 147.31C167.218 145.477 165.891 143.702 163.911 143.345C161.932 142.988 160.048 144.186 159.705 146.019C159.361 147.852 160.687 149.628 162.667 149.984Z" fill="#33332D"/>
<path d="M175.468 152.29C177.448 152.646 179.332 151.449 179.675 149.615C180.019 147.782 178.692 146.007 176.713 145.65C174.733 145.294 172.849 146.491 172.506 148.324C172.162 150.158 173.488 151.933 175.468 152.29Z" fill="#33332D"/>
<path d="M160.278 161.392C162.257 161.748 164.141 160.551 164.485 158.718C164.828 156.884 163.502 155.109 161.522 154.753C159.542 154.396 157.659 155.593 157.315 157.427C156.971 159.26 158.298 161.035 160.278 161.392Z" fill="#33332D"/>
<path d="M173.079 163.697C175.059 164.054 176.942 162.856 177.286 161.023C177.629 159.19 176.303 157.414 174.323 157.058C172.343 156.701 170.46 157.899 170.116 159.732C169.773 161.565 171.099 163.341 173.079 163.697Z" fill="#33332D"/>
<path d="M158.341 173.065C160.321 173.421 162.205 172.224 162.548 170.391C162.892 168.557 161.565 166.782 159.586 166.426C157.606 166.069 155.722 167.266 155.379 169.1C155.035 170.933 156.361 172.708 158.341 173.065Z" fill="#33332D"/>
<path d="M171.142 175.37C173.122 175.727 175.006 174.529 175.349 172.696C175.693 170.863 174.367 169.087 172.387 168.731C170.407 168.374 168.523 169.572 168.18 171.405C167.836 173.238 169.163 175.014 171.142 175.37Z" fill="#33332D"/>
<path d="M156.26 184.945C158.24 185.301 160.123 184.104 160.467 182.271C160.811 180.437 159.484 178.662 157.505 178.305C155.525 177.949 153.641 179.146 153.298 180.98C152.954 182.813 154.28 184.588 156.26 184.945Z" fill="#33332D"/>
<path d="M169.061 187.25C171.041 187.606 172.925 186.409 173.268 184.576C173.612 182.742 172.286 180.967 170.306 180.611C168.326 180.254 166.442 181.451 166.099 183.285C165.755 185.118 167.082 186.893 169.061 187.25Z" fill="#33332D"/>
<path d="M153.636 197.535C155.615 197.892 157.499 196.695 157.843 194.861C158.186 193.028 156.86 191.253 154.88 190.896C152.9 190.54 151.017 191.737 150.673 193.57C150.329 195.404 151.656 197.179 153.636 197.535Z" fill="#33332D"/>
<path d="M166.437 199.84C168.417 200.197 170.3 199 170.644 197.166C170.987 195.333 169.661 193.558 167.681 193.201C165.701 192.845 163.818 194.042 163.474 195.875C163.131 197.709 164.457 199.484 166.437 199.84Z" fill="#33332D"/>
<path d="M196.697 107.511C198.677 107.867 200.561 106.67 200.904 104.837C201.248 103.003 199.921 101.228 197.942 100.872C195.962 100.515 194.078 101.712 193.735 103.546C193.391 105.379 194.717 107.154 196.697 107.511Z" fill="#33332D"/>
<path d="M209.501 109.804C211.481 110.161 213.364 108.963 213.708 107.13C214.051 105.297 212.725 103.521 210.745 103.165C208.765 102.808 206.882 104.006 206.538 105.839C206.194 107.672 207.521 109.448 209.501 109.804Z" fill="#33332D"/>
<path d="M222.3 112.121C224.279 112.478 226.163 111.281 226.507 109.447C226.85 107.614 225.524 105.839 223.544 105.482C221.564 105.126 219.681 106.323 219.337 108.156C218.993 109.99 220.32 111.765 222.3 112.121Z" fill="#33332D"/>
<path d="M235.103 114.415C237.083 114.771 238.966 113.574 239.31 111.741C239.654 109.907 238.327 108.132 236.347 107.775C234.368 107.419 232.484 108.616 232.141 110.45C231.797 112.283 233.123 114.058 235.103 114.415Z" fill="#33332D"/>
<path d="M233.009 126.292C234.989 126.649 236.873 125.451 237.216 123.618C237.56 121.785 236.233 120.009 234.254 119.653C232.274 119.296 230.39 120.494 230.047 122.327C229.703 124.16 231.029 125.936 233.009 126.292Z" fill="#33332D"/>
<path d="M220.208 123.987C222.188 124.343 224.071 123.146 224.415 121.313C224.759 119.479 223.432 117.704 221.452 117.348C219.473 116.991 217.589 118.188 217.245 120.022C216.902 121.855 218.228 123.63 220.208 123.987Z" fill="#33332D"/>
<path d="M207.407 121.682C209.387 122.038 211.27 120.841 211.614 119.008C211.957 117.174 210.631 115.399 208.651 115.042C206.671 114.686 204.788 115.883 204.444 117.716C204.101 119.55 205.427 121.325 207.407 121.682Z" fill="#33332D"/>
<path d="M194.603 119.388C196.583 119.745 198.467 118.548 198.81 116.714C199.154 114.881 197.828 113.106 195.848 112.749C193.868 112.393 191.984 113.59 191.641 115.423C191.297 117.257 192.624 119.032 194.603 119.388Z" fill="#33332D"/>
<path d="M192.214 130.796C194.194 131.153 196.077 129.955 196.421 128.122C196.764 126.289 195.438 124.513 193.458 124.157C191.478 123.8 189.595 124.997 189.251 126.831C188.908 128.664 190.234 130.44 192.214 130.796Z" fill="#33332D"/>
<path d="M205.017 133.089C206.997 133.446 208.881 132.249 209.224 130.415C209.568 128.582 208.242 126.806 206.262 126.45C204.282 126.093 202.398 127.291 202.055 129.124C201.711 130.957 203.037 132.733 205.017 133.089Z" fill="#33332D"/>
<path d="M217.819 135.395C219.798 135.751 221.682 134.554 222.025 132.72C222.369 130.887 221.043 129.112 219.063 128.755C217.083 128.399 215.2 129.596 214.856 131.429C214.512 133.263 215.839 135.038 217.819 135.395Z" fill="#33332D"/>
<path d="M230.62 137.7C232.6 138.056 234.483 136.859 234.827 135.026C235.17 133.192 233.844 131.417 231.864 131.06C229.884 130.704 228.001 131.901 227.657 133.735C227.314 135.568 228.64 137.343 230.62 137.7Z" fill="#33332D"/>
<path d="M228.436 149.843C230.416 150.2 232.3 149.002 232.643 147.169C232.987 145.336 231.661 143.56 229.681 143.204C227.701 142.847 225.817 144.044 225.474 145.878C225.13 147.711 226.457 149.487 228.436 149.843Z" fill="#33332D"/>
<path d="M215.635 147.538C217.615 147.894 219.499 146.697 219.842 144.864C220.186 143.03 218.859 141.255 216.88 140.899C214.9 140.542 213.016 141.739 212.673 143.573C212.329 145.406 213.655 147.181 215.635 147.538Z" fill="#33332D"/>
<path d="M202.834 145.233C204.814 145.589 206.697 144.392 207.041 142.559C207.385 140.725 206.058 138.95 204.078 138.593C202.099 138.237 200.215 139.434 199.871 141.268C199.528 143.101 200.854 144.876 202.834 145.233Z" fill="#33332D"/>
<path d="M190.031 142.939C192.01 143.296 193.894 142.099 194.238 140.265C194.581 138.432 193.255 136.657 191.275 136.3C189.295 135.944 187.412 137.141 187.068 138.974C186.724 140.808 188.051 142.583 190.031 142.939Z" fill="#33332D"/>
<path d="M187.95 154.819C189.929 155.176 191.813 153.978 192.156 152.145C192.5 150.312 191.174 148.536 189.194 148.18C187.214 147.823 185.331 149.021 184.987 150.854C184.643 152.687 185.97 154.463 187.95 154.819Z" fill="#653D3D"/>
<path d="M200.753 157.112C202.733 157.469 204.616 156.272 204.96 154.438C205.304 152.605 203.977 150.83 201.997 150.473C200.017 150.117 198.134 151.314 197.79 153.147C197.447 154.981 198.773 156.756 200.753 157.112Z" fill="#33332D"/>
<path d="M213.554 159.418C215.534 159.774 217.417 158.577 217.761 156.744C218.105 154.91 216.778 153.135 214.799 152.778C212.819 152.422 210.935 153.619 210.592 155.452C210.248 157.286 211.574 159.061 213.554 159.418Z" fill="#33332D"/>
<path d="M226.355 161.723C228.335 162.079 230.219 160.882 230.562 159.049C230.906 157.215 229.58 155.44 227.6 155.084C225.62 154.727 223.736 155.924 223.393 157.758C223.049 159.591 224.376 161.366 226.355 161.723Z" fill="#33332D"/>
<path d="M223.966 173.13C225.946 173.487 227.829 172.29 228.173 170.456C228.516 168.623 227.19 166.848 225.21 166.491C223.23 166.134 221.347 167.332 221.003 169.165C220.66 170.998 221.986 172.774 223.966 173.13Z" fill="#33332D"/>
<path d="M211.165 170.825C213.144 171.182 215.028 169.984 215.372 168.151C215.715 166.318 214.389 164.542 212.409 164.186C210.429 163.829 208.546 165.027 208.202 166.86C207.858 168.693 209.185 170.469 211.165 170.825Z" fill="#33332D"/>
<path d="M198.363 168.52C200.343 168.876 202.227 167.679 202.57 165.846C202.914 164.012 201.588 162.237 199.608 161.881C197.628 161.524 195.745 162.721 195.401 164.555C195.057 166.388 196.384 168.163 198.363 168.52Z" fill="#33332D"/>
<path d="M185.56 166.227C187.54 166.583 189.423 165.386 189.767 163.552C190.111 161.719 188.784 159.944 186.804 159.587C184.825 159.231 182.941 160.428 182.597 162.261C182.254 164.095 183.58 165.87 185.56 166.227Z" fill="#33332D"/>
<path d="M183.626 177.888C185.606 178.244 187.489 177.047 187.833 175.214C188.176 173.38 186.85 171.605 184.87 171.248C182.89 170.892 181.007 172.089 180.663 173.923C180.32 175.756 181.646 177.531 183.626 177.888Z" fill="#33332D"/>
<path d="M196.427 180.193C198.407 180.549 200.29 179.352 200.634 177.519C200.978 175.685 199.651 173.91 197.671 173.554C195.692 173.197 193.808 174.394 193.464 176.228C193.121 178.061 194.447 179.836 196.427 180.193Z" fill="#33332D"/>
<path d="M209.228 182.498C211.208 182.855 213.092 181.657 213.435 179.824C213.779 177.991 212.452 176.215 210.473 175.859C208.493 175.502 206.609 176.7 206.266 178.533C205.922 180.366 207.248 182.142 209.228 182.498Z" fill="#33332D"/>
<path d="M222.029 184.803C224.009 185.16 225.893 183.963 226.236 182.129C226.58 180.296 225.254 178.521 223.274 178.164C221.294 177.808 219.411 179.005 219.067 180.838C218.723 182.672 220.05 184.447 222.029 184.803Z" fill="#33332D"/>
<path d="M219.948 196.683C221.928 197.04 223.812 195.842 224.155 194.009C224.499 192.176 223.173 190.4 221.193 190.044C219.213 189.687 217.329 190.885 216.986 192.718C216.642 194.551 217.969 196.327 219.948 196.683Z" fill="#33332D"/>
<path d="M207.147 194.378C209.127 194.734 211.011 193.537 211.354 191.704C211.698 189.87 210.371 188.095 208.392 187.739C206.412 187.382 204.528 188.579 204.185 190.413C203.841 192.246 205.167 194.021 207.147 194.378Z" fill="#33332D"/>
<path d="M194.346 192.073C196.326 192.429 198.209 191.232 198.553 189.399C198.897 187.565 197.57 185.79 195.59 185.433C193.611 185.077 191.727 186.274 191.383 188.107C191.04 189.941 192.366 191.716 194.346 192.073Z" fill="#33332D"/>
<path d="M181.545 189.767C183.525 190.124 185.408 188.927 185.752 187.093C186.095 185.26 184.769 183.485 182.789 183.128C180.809 182.772 178.926 183.969 178.582 185.802C178.239 187.636 179.565 189.411 181.545 189.767Z" fill="#33332D"/>
<path d="M178.92 202.358C180.9 202.715 182.784 201.517 183.127 199.684C183.471 197.851 182.145 196.075 180.165 195.719C178.185 195.362 176.301 196.559 175.958 198.393C175.614 200.226 176.941 202.002 178.92 202.358Z" fill="#33332D"/>
<path d="M191.722 204.663C193.701 205.02 195.585 203.823 195.929 201.989C196.272 200.156 194.946 198.381 192.966 198.024C190.986 197.668 189.103 198.865 188.759 200.698C188.415 202.532 189.742 204.307 191.722 204.663Z" fill="#33332D"/>
<path d="M204.523 206.969C206.503 207.325 208.386 206.128 208.73 204.294C209.073 202.461 207.747 200.686 205.767 200.329C203.787 199.973 201.904 201.17 201.56 203.003C201.217 204.837 202.543 206.612 204.523 206.969Z" fill="#33332D"/>
<path d="M217.324 209.274C219.304 209.63 221.187 208.433 221.531 206.6C221.875 204.766 220.548 202.991 218.568 202.634C216.589 202.278 214.705 203.475 214.361 205.309C214.018 207.142 215.344 208.917 217.324 209.274Z" fill="#33332D"/>
<path d="M247.902 116.732C249.882 117.088 251.765 115.891 252.109 114.058C252.453 112.224 251.126 110.449 249.146 110.092C247.167 109.736 245.283 110.933 244.94 112.767C244.596 114.6 245.922 116.375 247.902 116.732Z" fill="#33332D"/>
<path d="M260.706 119.025C262.685 119.382 264.569 118.184 264.912 116.351C265.256 114.518 263.93 112.742 261.95 112.386C259.97 112.029 258.087 113.226 257.743 115.06C257.399 116.893 258.726 118.669 260.706 119.025Z" fill="#33332D"/>
<path d="M245.81 128.597C247.79 128.954 249.674 127.757 250.017 125.923C250.361 124.09 249.035 122.315 247.055 121.958C245.075 121.602 243.191 122.799 242.848 124.632C242.504 126.466 243.831 128.241 245.81 128.597Z" fill="#33332D"/>
<path d="M258.612 130.902C260.591 131.259 262.475 130.062 262.819 128.228C263.162 126.395 261.836 124.62 259.856 124.263C257.876 123.907 255.993 125.104 255.649 126.937C255.305 128.771 256.632 130.546 258.612 130.902Z" fill="#33332D"/>
<path d="M243.421 140.005C245.401 140.361 247.284 139.164 247.628 137.331C247.972 135.497 246.645 133.722 244.665 133.366C242.685 133.009 240.802 134.206 240.458 136.04C240.115 137.873 241.441 139.648 243.421 140.005Z" fill="#33332D"/>
<path d="M256.222 142.31C258.202 142.667 260.085 141.469 260.429 139.636C260.773 137.803 259.446 136.027 257.467 135.671C255.487 135.314 253.603 136.512 253.26 138.345C252.916 140.178 254.242 141.954 256.222 142.31Z" fill="#33332D"/>
<path d="M241.238 152.148C243.217 152.505 245.101 151.307 245.445 149.474C245.788 147.641 244.462 145.865 242.482 145.509C240.502 145.152 238.619 146.35 238.275 148.183C237.931 150.016 239.258 151.792 241.238 152.148Z" fill="#33332D"/>
<path d="M254.039 154.453C256.019 154.81 257.902 153.613 258.246 151.779C258.589 149.946 257.263 148.171 255.283 147.814C253.303 147.458 251.42 148.655 251.076 150.488C250.733 152.322 252.059 154.097 254.039 154.453Z" fill="#653D3D"/>
<path d="M239.157 164.028C241.136 164.384 243.02 163.187 243.364 161.354C243.707 159.52 242.381 157.745 240.401 157.389C238.421 157.032 236.538 158.229 236.194 160.063C235.85 161.896 237.177 163.671 239.157 164.028Z" fill="#33332D"/>
<path d="M251.958 166.333C253.938 166.69 255.821 165.492 256.165 163.659C256.508 161.826 255.182 160.05 253.202 159.694C251.222 159.337 249.339 160.535 248.995 162.368C248.652 164.201 249.978 165.977 251.958 166.333Z" fill="#33332D"/>
<path d="M236.767 175.435C238.747 175.792 240.63 174.595 240.974 172.761C241.318 170.928 239.991 169.153 238.011 168.796C236.032 168.44 234.148 169.637 233.804 171.47C233.461 173.304 234.787 175.079 236.767 175.435Z" fill="#33332D"/>
<path d="M249.568 177.741C251.548 178.097 253.432 176.9 253.775 175.067C254.119 173.233 252.793 171.458 250.813 171.101C248.833 170.745 246.949 171.942 246.606 173.775C246.262 175.609 247.588 177.384 249.568 177.741Z" fill="#33332D"/>
<path d="M234.831 187.109C236.81 187.465 238.694 186.268 239.038 184.434C239.381 182.601 238.055 180.826 236.075 180.469C234.095 180.113 232.212 181.31 231.868 183.143C231.524 184.977 232.851 186.752 234.831 187.109Z" fill="#33332D"/>
<path d="M245.209 201.918C247.189 202.275 249.072 201.077 249.416 199.244C249.759 197.411 248.433 195.635 246.453 195.279C244.473 194.922 242.59 196.12 242.246 197.953C241.903 199.786 243.229 201.562 245.209 201.918Z" fill="#33332D"/>
<path d="M232.75 198.988C234.729 199.345 236.613 198.148 236.957 196.314C237.3 194.481 235.974 192.706 233.994 192.349C232.014 191.993 230.131 193.19 229.787 195.023C229.443 196.857 230.77 198.632 232.75 198.988Z" fill="#33332D"/>
<path d="M247.655 190.067C249.635 190.424 251.518 189.227 251.862 187.393C252.206 185.56 250.879 183.785 248.899 183.428C246.919 183.072 245.036 184.269 244.692 186.102C244.349 187.936 245.675 189.711 247.655 190.067Z" fill="#653D3D"/>
<path d="M230.125 211.579C232.105 211.935 233.989 210.738 234.332 208.905C234.676 207.071 233.349 205.296 231.37 204.94C229.39 204.583 227.506 205.78 227.163 207.614C226.819 209.447 228.145 211.222 230.125 211.579Z" fill="#33332D"/>
<path d="M242.926 213.884C244.906 214.241 246.79 213.043 247.133 211.21C247.477 209.377 246.151 207.601 244.171 207.245C242.191 206.888 240.307 208.085 239.964 209.919C239.62 211.752 240.947 213.528 242.926 213.884Z" fill="#33332D"/>
<path d="M249.971 146.232L195.305 136.388L193.838 144.213L248.505 154.057L249.971 146.232Z" fill="#33332D"/>
<path d="M243.467 181.854L188.8 172.01L187.42 179.374L242.086 189.219L243.467 181.854Z" fill="#33332D"/>
<path d="M200.454 112.948L150.582 103.967L149.03 112.253L198.901 121.233L200.454 112.948Z" fill="#33332D"/>
<path d="M187.103 183.586L138.19 174.778L136.724 182.603L185.636 191.411L187.103 183.586Z" fill="#33332D"/>
<path d="M192.899 157.128L182.562 155.266L184.356 145.694L194.693 147.555L192.899 157.128ZM182.862 155.075L192.687 156.845L194.393 147.746L184.568 145.977L182.862 155.075Z" fill="#33332D" stroke="#33332D" stroke-width="0.1" stroke-linecap="round"/>
<path d="M183.704 155.857L178.711 182.501L187.161 184.023L192.155 157.379L183.704 155.857Z" fill="#33332D"/>
<path d="M253.123 193.026L241.752 190.978L243.726 180.448L255.096 182.496L253.123 193.026ZM242.083 190.768L252.89 192.714L254.766 182.706L243.958 180.76L242.083 190.768Z" fill="#33332D" stroke="#33332D" stroke-width="0.11" stroke-linecap="round"/>
<path d="M136.069 183.38L124.699 181.333L126.672 170.803L138.043 172.851L136.069 183.38ZM125.029 181.123L135.837 183.069L137.712 173.061L126.905 171.115L125.029 181.123Z" fill="#33332D" stroke="#33332D" stroke-width="0.11" stroke-linecap="round"/>
<path d="M190.592 119.109L185.598 145.753L194.048 147.274L199.042 120.631L190.592 119.109Z" fill="#33332D"/>
<path d="M148.457 112.533L138.12 110.671L139.914 101.099L150.251 102.96L148.457 112.533ZM138.42 110.48L148.245 112.25L149.95 103.151L140.125 101.382L138.42 110.48Z" fill="#33332D" stroke="#33332D" stroke-width="0.1" stroke-linecap="round"/>
<path d="M259.444 157.462L248.074 155.414L250.047 144.884L261.418 146.932L259.444 157.462ZM248.404 155.204L259.212 157.15L261.087 147.142L250.28 145.196L248.404 155.204Z" fill="#33332D" stroke="#33332D" stroke-width="0.11" stroke-linecap="round"/>
</g>
<defs>
<clipPath id="clip0_101_1909">
<rect width="242.965" height="208.311" fill="white" transform="translate(0 206.88)"/>
</clipPath>
<clipPath id="clip1_101_1909">
<rect width="243.413" height="208.065" fill="white" transform="matrix(0.983225 0.182395 -0.179094 0.983832 77.9668 0)"/>
</clipPath>
<clipPath id="clip2_101_1909">
<rect width="243.414" height="208.064" fill="white" transform="matrix(0.982931 0.183976 -0.180648 0.983548 258.741 165.619)"/>
</clipPath>
<clipPath id="clip3_101_1909">
<rect width="145.381" height="126.515" fill="white" transform="matrix(0.982944 0.183906 -0.180579 0.98356 312.521 244.51)"/>
</clipPath>
<clipPath id="clip4_101_1909">
<rect width="145.335" height="126.554" fill="white" transform="translate(64.3468 272.957)"/>
</clipPath>
<clipPath id="clip5_101_1909">
<rect width="145.38" height="126.516" fill="white" transform="matrix(0.983234 0.182348 -0.179048 0.983841 131.393 75.257)"/>
</clipPath>
</defs>
</svg>
