<svg width="68" height="68" viewBox="0 0 68 68" fill="none" xmlns="http://www.w3.org/2000/svg">
<path d="M17 17C12.4913 17 8.1673 18.7913 4.97919 21.9794C1.79107 25.1675 0 29.4913 0 34C0 38.5087 1.79107 42.833 4.97919 46.0211C8.1673 49.2092 12.4913 51 17 51C25.5 51 34 46.75 38.25 34C34 21.25 25.5 17 17 17ZM17 25.5C17 25.5 25.5 25.5 29.75 34C25.5 42.5 17 42.5 17 42.5C14.7457 42.5 12.5837 41.6043 10.9896 40.0103C9.39553 38.4162 8.5 36.2543 8.5 34C8.5 31.7457 9.39553 29.5838 10.9896 27.9897C12.5837 26.3957 14.7457 25.5 17 25.5Z" fill="#33332D"/>
<path d="M51 17C55.5087 17 59.8327 18.7913 63.0208 21.9794C66.2089 25.1675 68 29.4913 68 34C68 38.5087 66.2089 42.833 63.0208 46.0211C59.8327 49.2092 55.5087 51 51 51C42.5 51 34 46.75 29.75 34C34 21.25 42.5 17 51 17ZM51 25.5C51 25.5 42.5 25.5 38.25 34C42.5 42.5 51 42.5 51 42.5C53.2543 42.5 55.4163 41.6043 57.0104 40.0103C58.6045 38.4162 59.5 36.2543 59.5 34C59.5 31.7457 58.6045 29.5838 57.0104 27.9897C55.4163 26.3957 53.2543 25.5 51 25.5Z" fill="#33332D"/>
</svg>
