<svg width="100" height="100" viewBox="0 0 100 100" fill="none" xmlns="http://www.w3.org/2000/svg">
<path d="M50.038 70.494C49.38 69.61 48.132 69.418 47.242 70.074C45.706 71.208 44.826 72.9 44.826 74.714C44.826 75.84 45.168 76.936 45.856 77.934L49.694 83.162C50.07 83.676 50.67 83.978 51.306 83.978C51.942 83.978 52.542 83.674 52.918 83.16L56.79 77.874C57.436 76.926 57.778 75.832 57.778 74.712C57.778 72.848 56.86 71.13 55.256 69.998C54.352 69.36 53.106 69.576 52.468 70.476C51.83 71.378 52.044 72.626 52.946 73.264C53.474 73.638 53.776 74.164 53.776 74.714C53.776 75.032 53.678 75.34 53.524 75.568L51.304 78.6L49.118 75.622C48.924 75.34 48.826 75.036 48.826 74.716C48.826 74.184 49.116 73.666 49.618 73.294C50.506 72.634 50.694 71.382 50.038 70.494Z" fill="#33332D"/>
<path d="M63.978 70.712C64.352 71.04 64.824 71.212 65.302 71.212C65.58 71.212 65.86 71.154 66.124 71.034C66.84 70.712 67.3 70 67.3 69.212V56.408C67.3 55.834 67.054 55.288 66.624 54.908L59.438 48.566V30.142C59.438 29.708 59.298 29.286 59.036 28.94L52.9 20.78C52.144 19.772 50.458 19.772 49.702 20.78L43.564 28.942C43.304 29.288 43.162 29.71 43.162 30.144V48.568L35.976 54.91C35.546 55.29 35.3 55.836 35.3 56.41V69.214C35.3 70.002 35.76 70.714 36.478 71.036C36.742 71.156 37.022 71.214 37.3 71.214C37.778 71.214 38.25 71.042 38.624 70.714L43.942 66.022C44.282 66.292 44.694 66.478 45.164 66.478H57.44C57.908 66.478 58.32 66.292 58.662 66.022L63.978 70.712ZM63.3 64.782L59.438 61.374V53.904L63.3 57.312V64.782ZM51.3 25.308L55.438 30.81V47.686H47.162V30.81L51.3 25.308ZM39.3 57.31L43.162 53.902V61.372L39.3 64.78V57.31ZM47.164 62.476V51.686H55.44V62.476H47.164Z" fill="#33332D"/>
</svg>
