<svg width="175" height="173" viewBox="0 0 175 173" fill="none" xmlns="http://www.w3.org/2000/svg">
<g clip-path="url(#clip0_107_2435)">
<path d="M18.0339 26.0204C20.3273 26.0204 22.1864 23.8573 22.1864 21.189C22.1864 18.5207 20.3273 16.3577 18.0339 16.3577C15.7405 16.3577 13.8813 18.5207 13.8813 21.189C13.8813 23.8573 15.7405 26.0204 18.0339 26.0204Z" fill="#33332D"/>
<path d="M18.1822 43.2752C20.4756 43.2752 22.3347 41.1122 22.3347 38.4439C22.3347 35.7756 20.4756 33.6125 18.1822 33.6125C15.8888 33.6125 14.0297 35.7756 14.0297 38.4439C14.0297 41.1122 15.8888 43.2752 18.1822 43.2752Z" fill="#653D3D"/>
<path d="M17.9004 59.9436C20.1938 59.9436 22.0529 57.7805 22.0529 55.1122C22.0529 52.4439 20.1938 50.2808 17.9004 50.2808C15.607 50.2808 13.7479 52.4439 13.7479 55.1122C13.7479 57.7805 15.607 59.9436 17.9004 59.9436Z" fill="#33332D"/>
<path d="M18.0042 77.5953C20.2976 77.5953 22.1568 75.4322 22.1568 72.7639C22.1568 70.0956 20.2976 67.9326 18.0042 67.9326C15.7108 67.9326 13.8517 70.0956 13.8517 72.7639C13.8517 75.4322 15.7108 77.5953 18.0042 77.5953Z" fill="#33332D"/>
<path d="M18.1674 94.8502C20.4608 94.8502 22.3199 92.6871 22.3199 90.0188C22.3199 87.3505 20.4608 85.1874 18.1674 85.1874C15.874 85.1874 14.0149 87.3505 14.0149 90.0188C14.0149 92.6871 15.874 94.8502 18.1674 94.8502Z" fill="#33332D"/>
<path d="M17.8856 111.518C20.179 111.518 22.0381 109.355 22.0381 106.687C22.0381 104.019 20.179 101.856 17.8856 101.856C15.5922 101.856 13.7331 104.019 13.7331 106.687C13.7331 109.355 15.5922 111.518 17.8856 111.518Z" fill="#33332D"/>
<path d="M18.1674 128.446C20.4608 128.446 22.3199 126.282 22.3199 123.614C22.3199 120.946 20.4608 118.783 18.1674 118.783C15.874 118.783 14.0149 120.946 14.0149 123.614C14.0149 126.282 15.874 128.446 18.1674 128.446Z" fill="#33332D"/>
<path d="M18.3305 145.7C20.6239 145.7 22.483 143.537 22.483 140.869C22.483 138.201 20.6239 136.038 18.3305 136.038C16.0371 136.038 14.1779 138.201 14.1779 140.869C14.1779 143.537 16.0371 145.7 18.3305 145.7Z" fill="#653D3D"/>
<path d="M18.0339 164.094C20.3273 164.094 22.1864 161.931 22.1864 159.263C22.1864 156.594 20.3273 154.431 18.0339 154.431C15.7405 154.431 13.8813 156.594 13.8813 159.263C13.8813 161.931 15.7405 164.094 18.0339 164.094Z" fill="#33332D"/>
<path d="M32.8496 26.0031C35.143 26.0031 37.0021 23.84 37.0021 21.1717C37.0021 18.5034 35.143 16.3403 32.8496 16.3403C30.5562 16.3403 28.6971 18.5034 28.6971 21.1717C28.6971 23.84 30.5562 26.0031 32.8496 26.0031Z" fill="#33332D"/>
<path d="M32.9979 43.258C35.2913 43.258 37.1505 41.0949 37.1505 38.4266C37.1505 35.7583 35.2913 33.5952 32.9979 33.5952C30.7045 33.5952 28.8454 35.7583 28.8454 38.4266C28.8454 41.0949 30.7045 43.258 32.9979 43.258Z" fill="#33332D"/>
<path d="M32.7161 61.6518C35.0095 61.6518 36.8687 59.4887 36.8687 56.8204C36.8687 54.1521 35.0095 51.989 32.7161 51.989C30.4227 51.989 28.5636 54.1521 28.5636 56.8204C28.5636 59.4887 30.4227 61.6518 32.7161 61.6518Z" fill="#33332D"/>
<path d="M32.8199 77.5953C35.1133 77.5953 36.9724 75.4322 36.9724 72.7639C36.9724 70.0956 35.1133 67.9326 32.8199 67.9326C30.5265 67.9326 28.6674 70.0956 28.6674 72.7639C28.6674 75.4322 30.5265 77.5953 32.8199 77.5953Z" fill="#33332D"/>
<path d="M32.983 94.8502C35.2764 94.8502 37.1356 92.6871 37.1356 90.0188C37.1356 87.3505 35.2764 85.1874 32.983 85.1874C30.6897 85.1874 28.8305 87.3505 28.8305 90.0188C28.8305 92.6871 30.6897 94.8502 32.983 94.8502Z" fill="#33332D"/>
<path d="M32.7013 111.501C34.9947 111.501 36.8538 109.338 36.8538 106.67C36.8538 104.002 34.9947 101.838 32.7013 101.838C30.4079 101.838 28.5487 104.002 28.5487 106.67C28.5487 109.338 30.4079 111.501 32.7013 111.501Z" fill="#33332D"/>
<path d="M32.983 128.446C35.2764 128.446 37.1356 126.282 37.1356 123.614C37.1356 120.946 35.2764 118.783 32.983 118.783C30.6897 118.783 28.8305 120.946 28.8305 123.614C28.8305 126.282 30.6897 128.446 32.983 128.446Z" fill="#33332D"/>
<path d="M33.1462 145.7C35.4395 145.7 37.2987 143.537 37.2987 140.869C37.2987 138.201 35.4395 136.038 33.1462 136.038C30.8528 136.038 28.9936 138.201 28.9936 140.869C28.9936 143.537 30.8528 145.7 33.1462 145.7Z" fill="#33332D"/>
<path d="M32.8496 164.094C35.143 164.094 37.0021 161.931 37.0021 159.263C37.0021 156.594 35.143 154.431 32.8496 154.431C30.5562 154.431 28.6971 156.594 28.6971 159.263C28.6971 161.931 30.5562 164.094 32.8496 164.094Z" fill="#33332D"/>
<path d="M47.6949 26.0204C49.9883 26.0204 51.8474 23.8573 51.8474 21.189C51.8474 18.5207 49.9883 16.3577 47.6949 16.3577C45.4015 16.3577 43.5424 18.5207 43.5424 21.189C43.5424 23.8573 45.4015 26.0204 47.6949 26.0204Z" fill="#33332D"/>
<path d="M62.5254 26.0031C64.8188 26.0031 66.6779 23.84 66.6779 21.1717C66.6779 18.5034 64.8188 16.3403 62.5254 16.3403C60.232 16.3403 58.3729 18.5034 58.3729 21.1717C58.3729 23.84 60.232 26.0031 62.5254 26.0031Z" fill="#33332D"/>
<path d="M47.8432 43.258C50.1366 43.258 51.9958 41.0949 51.9958 38.4266C51.9958 35.7583 50.1366 33.5952 47.8432 33.5952C45.5498 33.5952 43.6907 35.7583 43.6907 38.4266C43.6907 41.0949 45.5498 43.258 47.8432 43.258Z" fill="#33332D"/>
<path d="M62.6738 43.258C64.9671 43.258 66.8263 41.0949 66.8263 38.4266C66.8263 35.7583 64.9671 33.5952 62.6738 33.5952C60.3804 33.5952 58.5212 35.7583 58.5212 38.4266C58.5212 41.0949 60.3804 43.258 62.6738 43.258Z" fill="#33332D"/>
<path d="M47.5614 59.9263C49.8548 59.9263 51.714 57.7632 51.714 55.0949C51.714 52.4266 49.8548 50.2635 47.5614 50.2635C45.268 50.2635 43.4089 52.4266 43.4089 55.0949C43.4089 57.7632 45.268 59.9263 47.5614 59.9263Z" fill="#33332D"/>
<path d="M62.392 59.9263C64.6854 59.9263 66.5445 57.7632 66.5445 55.0949C66.5445 52.4266 64.6854 50.2635 62.392 50.2635C60.0986 50.2635 58.2394 52.4266 58.2394 55.0949C58.2394 57.7632 60.0986 59.9263 62.392 59.9263Z" fill="#33332D"/>
<path d="M47.6652 77.578C49.9586 77.578 51.8178 75.4149 51.8178 72.7467C51.8178 70.0784 49.9586 67.9153 47.6652 67.9153C45.3719 67.9153 43.5127 70.0784 43.5127 72.7467C43.5127 75.4149 45.3719 77.578 47.6652 77.578Z" fill="#33332D"/>
<path d="M62.4958 77.578C64.7892 77.578 66.6483 75.4149 66.6483 72.7467C66.6483 70.0784 64.7892 67.9153 62.4958 67.9153C60.2024 67.9153 58.3433 70.0784 58.3433 72.7467C58.3433 75.4149 60.2024 77.578 62.4958 77.578Z" fill="#33332D"/>
<path d="M47.8284 94.8329C50.1218 94.8329 51.981 92.6698 51.981 90.0015C51.981 87.3332 50.1218 85.1702 47.8284 85.1702C45.535 85.1702 43.6759 87.3332 43.6759 90.0015C43.6759 92.6698 45.535 94.8329 47.8284 94.8329Z" fill="#33332D"/>
<path d="M62.6589 94.8329C64.9523 94.8329 66.8115 92.6698 66.8115 90.0015C66.8115 87.3332 64.9523 85.1702 62.6589 85.1702C60.3655 85.1702 58.5064 87.3332 58.5064 90.0015C58.5064 92.6698 60.3655 94.8329 62.6589 94.8329Z" fill="#33332D"/>
<path d="M47.5466 111.501C49.84 111.501 51.6992 109.338 51.6992 106.67C51.6992 104.002 49.84 101.838 47.5466 101.838C45.2532 101.838 43.3941 104.002 43.3941 106.67C43.3941 109.338 45.2532 111.501 47.5466 111.501Z" fill="#33332D"/>
<path d="M62.3771 111.501C64.6705 111.501 66.5297 109.338 66.5297 106.67C66.5297 104.002 64.6705 101.838 62.3771 101.838C60.0837 101.838 58.2246 104.002 58.2246 106.67C58.2246 109.338 60.0837 111.501 62.3771 111.501Z" fill="#33332D"/>
<path d="M47.8284 128.428C50.1218 128.428 51.981 126.265 51.981 123.597C51.981 120.929 50.1218 118.766 47.8284 118.766C45.535 118.766 43.6759 120.929 43.6759 123.597C43.6759 126.265 45.535 128.428 47.8284 128.428Z" fill="#33332D"/>
<path d="M62.6589 128.428C64.9523 128.428 66.8115 126.265 66.8115 123.597C66.8115 120.929 64.9523 118.766 62.6589 118.766C60.3655 118.766 58.5064 120.929 58.5064 123.597C58.5064 126.265 60.3655 128.428 62.6589 128.428Z" fill="#33332D"/>
<path d="M47.9915 145.683C50.2849 145.683 52.1441 143.52 52.1441 140.852C52.1441 138.183 50.2849 136.02 47.9915 136.02C45.6981 136.02 43.839 138.183 43.839 140.852C43.839 143.52 45.6981 145.683 47.9915 145.683Z" fill="#33332D"/>
<path d="M62.822 145.683C65.1154 145.683 66.9746 143.52 66.9746 140.852C66.9746 138.183 65.1154 136.02 62.822 136.02C60.5287 136.02 58.6695 138.183 58.6695 140.852C58.6695 143.52 60.5287 145.683 62.822 145.683Z" fill="#33332D"/>
<path d="M47.6949 164.077C49.9883 164.077 51.8474 161.914 51.8474 159.245C51.8474 156.577 49.9883 154.414 47.6949 154.414C45.4015 154.414 43.5424 156.577 43.5424 159.245C43.5424 161.914 45.4015 164.077 47.6949 164.077Z" fill="#33332D"/>
<path d="M62.5254 164.077C64.8188 164.077 66.6779 161.914 66.6779 159.245C66.6779 156.577 64.8188 154.414 62.5254 154.414C60.232 154.414 58.3729 156.577 58.3729 159.245C58.3729 161.914 60.232 164.077 62.5254 164.077Z" fill="#33332D"/>
<path d="M77.0445 26.4C79.3379 26.4 81.1971 24.237 81.1971 21.5687C81.1971 18.9004 79.3379 16.7373 77.0445 16.7373C74.7511 16.7373 72.892 18.9004 72.892 21.5687C72.892 24.237 74.7511 26.4 77.0445 26.4Z" fill="#33332D"/>
<path d="M91.875 26.3827C94.1684 26.3827 96.0276 24.2196 96.0276 21.5513C96.0276 18.883 94.1684 16.72 91.875 16.72C89.5817 16.72 87.7225 18.883 87.7225 21.5513C87.7225 24.2196 89.5817 26.3827 91.875 26.3827Z" fill="#33332D"/>
<path d="M106.706 26.4C108.999 26.4 110.858 24.237 110.858 21.5687C110.858 18.9004 108.999 16.7373 106.706 16.7373C104.412 16.7373 102.553 18.9004 102.553 21.5687C102.553 24.237 104.412 26.4 106.706 26.4Z" fill="#33332D"/>
<path d="M121.536 26.3827C123.829 26.3827 125.689 24.2196 125.689 21.5513C125.689 18.883 123.829 16.72 121.536 16.72C119.243 16.72 117.384 18.883 117.384 21.5513C117.384 24.2196 119.243 26.3827 121.536 26.3827Z" fill="#33332D"/>
<path d="M121.684 43.6377C123.978 43.6377 125.837 41.4746 125.837 38.8063C125.837 36.138 123.978 33.9749 121.684 33.9749C119.391 33.9749 117.532 36.138 117.532 38.8063C117.532 41.4746 119.391 43.6377 121.684 43.6377Z" fill="#33332D"/>
<path d="M106.854 43.6377C109.147 43.6377 111.006 41.4746 111.006 38.8063C111.006 36.138 109.147 33.9749 106.854 33.9749C104.56 33.9749 102.701 36.138 102.701 38.8063C102.701 41.4746 104.56 43.6377 106.854 43.6377Z" fill="#33332D"/>
<path d="M92.0233 43.6377C94.3167 43.6377 96.1758 41.4746 96.1758 38.8063C96.1758 36.138 94.3167 33.9749 92.0233 33.9749C89.7299 33.9749 87.8708 36.138 87.8708 38.8063C87.8708 41.4746 89.7299 43.6377 92.0233 43.6377Z" fill="#33332D"/>
<path d="M77.1928 43.6549C79.4862 43.6549 81.3453 41.4919 81.3453 38.8236C81.3453 36.1553 79.4862 33.9922 77.1928 33.9922C74.8994 33.9922 73.0403 36.1553 73.0403 38.8236C73.0403 41.4919 74.8994 43.6549 77.1928 43.6549Z" fill="#33332D"/>
<path d="M76.911 60.3231C79.2044 60.3231 81.0636 58.16 81.0636 55.4917C81.0636 52.8234 79.2044 50.6603 76.911 50.6603C74.6176 50.6603 72.7585 52.8234 72.7585 55.4917C72.7585 58.16 74.6176 60.3231 76.911 60.3231Z" fill="#33332D"/>
<path d="M91.7415 60.3058C94.0349 60.3058 95.8941 58.1427 95.8941 55.4744C95.8941 52.8061 94.0349 50.6431 91.7415 50.6431C89.4481 50.6431 87.589 52.8061 87.589 55.4744C87.589 58.1427 89.4481 60.3058 91.7415 60.3058Z" fill="#33332D"/>
<path d="M106.572 60.3058C108.865 60.3058 110.725 58.1427 110.725 55.4744C110.725 52.8061 108.865 50.6431 106.572 50.6431C104.279 50.6431 102.419 52.8061 102.419 55.4744C102.419 58.1427 104.279 60.3058 106.572 60.3058Z" fill="#33332D"/>
<path d="M121.403 60.3058C123.696 60.3058 125.555 58.1427 125.555 55.4744C125.555 52.8061 123.696 50.6431 121.403 50.6431C119.109 50.6431 117.25 52.8061 117.25 55.4744C117.25 58.1427 119.109 60.3058 121.403 60.3058Z" fill="#33332D"/>
<path d="M121.506 77.9577C123.8 77.9577 125.659 75.7946 125.659 73.1263C125.659 70.458 123.8 68.2949 121.506 68.2949C119.213 68.2949 117.354 70.458 117.354 73.1263C117.354 75.7946 119.213 77.9577 121.506 77.9577Z" fill="#33332D"/>
<path d="M106.676 77.9577C108.969 77.9577 110.828 75.7946 110.828 73.1263C110.828 70.458 108.969 68.2949 106.676 68.2949C104.382 68.2949 102.523 70.458 102.523 73.1263C102.523 75.7946 104.382 77.9577 106.676 77.9577Z" fill="#33332D"/>
<path d="M91.8454 77.9577C94.1387 77.9577 95.9979 75.7946 95.9979 73.1263C95.9979 70.458 94.1387 68.2949 91.8454 68.2949C89.552 68.2949 87.6928 70.458 87.6928 73.1263C87.6928 75.7946 89.552 77.9577 91.8454 77.9577Z" fill="#33332D"/>
<path d="M77.0148 77.9749C79.3082 77.9749 81.1674 75.8119 81.1674 73.1436C81.1674 70.4753 79.3082 68.3122 77.0148 68.3122C74.7215 68.3122 72.8623 70.4753 72.8623 73.1436C72.8623 75.8119 74.7215 77.9749 77.0148 77.9749Z" fill="#33332D"/>
<path d="M77.1779 95.2299C79.4713 95.2299 81.3305 93.0668 81.3305 90.3985C81.3305 87.7302 79.4713 85.5671 77.1779 85.5671C74.8845 85.5671 73.0254 87.7302 73.0254 90.3985C73.0254 93.0668 74.8845 95.2299 77.1779 95.2299Z" fill="#653D3D"/>
<path d="M92.0085 95.2125C94.3019 95.2125 96.161 93.0495 96.161 90.3812C96.161 87.7129 94.3019 85.5498 92.0085 85.5498C89.7151 85.5498 87.8559 87.7129 87.8559 90.3812C87.8559 93.0495 89.7151 95.2125 92.0085 95.2125Z" fill="#33332D"/>
<path d="M106.839 95.2125C109.132 95.2125 110.992 93.0495 110.992 90.3812C110.992 87.7129 109.132 85.5498 106.839 85.5498C104.546 85.5498 102.686 87.7129 102.686 90.3812C102.686 93.0495 104.546 95.2125 106.839 95.2125Z" fill="#33332D"/>
<path d="M121.669 95.2125C123.963 95.2125 125.822 93.0495 125.822 90.3812C125.822 87.7129 123.963 85.5498 121.669 85.5498C119.376 85.5498 117.517 87.7129 117.517 90.3812C117.517 93.0495 119.376 95.2125 121.669 95.2125Z" fill="#33332D"/>
<path d="M121.388 111.881C123.681 111.881 125.54 109.718 125.54 107.049C125.54 104.381 123.681 102.218 121.388 102.218C119.094 102.218 117.235 104.381 117.235 107.049C117.235 109.718 119.094 111.881 121.388 111.881Z" fill="#33332D"/>
<path d="M106.557 111.881C108.851 111.881 110.71 109.718 110.71 107.049C110.71 104.381 108.851 102.218 106.557 102.218C104.264 102.218 102.405 104.381 102.405 107.049C102.405 109.718 104.264 111.881 106.557 111.881Z" fill="#33332D"/>
<path d="M91.7267 111.881C94.0201 111.881 95.8792 109.718 95.8792 107.049C95.8792 104.381 94.0201 102.218 91.7267 102.218C89.4333 102.218 87.5741 104.381 87.5741 107.049C87.5741 109.718 89.4333 111.881 91.7267 111.881Z" fill="#33332D"/>
<path d="M76.8962 111.898C79.1895 111.898 81.0487 109.735 81.0487 107.067C81.0487 104.398 79.1895 102.235 76.8962 102.235C74.6028 102.235 72.7436 104.398 72.7436 107.067C72.7436 109.735 74.6028 111.898 76.8962 111.898Z" fill="#33332D"/>
<path d="M77.1779 128.808C79.4713 128.808 81.3305 126.645 81.3305 123.976C81.3305 121.308 79.4713 119.145 77.1779 119.145C74.8845 119.145 73.0254 121.308 73.0254 123.976C73.0254 126.645 74.8845 128.808 77.1779 128.808Z" fill="#33332D"/>
<path d="M92.0085 128.808C94.3019 128.808 96.161 126.645 96.161 123.976C96.161 121.308 94.3019 119.145 92.0085 119.145C89.7151 119.145 87.8559 121.308 87.8559 123.976C87.8559 126.645 89.7151 128.808 92.0085 128.808Z" fill="#33332D"/>
<path d="M106.839 128.808C109.132 128.808 110.992 126.645 110.992 123.976C110.992 121.308 109.132 119.145 106.839 119.145C104.546 119.145 102.686 121.308 102.686 123.976C102.686 126.645 104.546 128.808 106.839 128.808Z" fill="#33332D"/>
<path d="M121.669 128.808C123.963 128.808 125.822 126.645 125.822 123.976C125.822 121.308 123.963 119.145 121.669 119.145C119.376 119.145 117.517 121.308 117.517 123.976C117.517 126.645 119.376 128.808 121.669 128.808Z" fill="#33332D"/>
<path d="M121.833 146.063C124.126 146.063 125.985 143.9 125.985 141.231C125.985 138.563 124.126 136.4 121.833 136.4C119.539 136.4 117.68 138.563 117.68 141.231C117.68 143.9 119.539 146.063 121.833 146.063Z" fill="#33332D"/>
<path d="M107.002 146.063C109.295 146.063 111.155 143.9 111.155 141.231C111.155 138.563 109.295 136.4 107.002 136.4C104.709 136.4 102.85 138.563 102.85 141.231C102.85 143.9 104.709 146.063 107.002 146.063Z" fill="#33332D"/>
<path d="M92.1716 146.063C94.465 146.063 96.3241 143.9 96.3241 141.231C96.3241 138.563 94.465 136.4 92.1716 136.4C89.8782 136.4 88.019 138.563 88.019 141.231C88.019 143.9 89.8782 146.063 92.1716 146.063Z" fill="#33332D"/>
<path d="M77.3411 146.063C79.6345 146.063 81.4936 143.9 81.4936 141.231C81.4936 138.563 79.6345 136.4 77.3411 136.4C75.0477 136.4 73.1885 138.563 73.1885 141.231C73.1885 143.9 75.0477 146.063 77.3411 146.063Z" fill="#33332D"/>
<path d="M77.0445 164.457C79.3379 164.457 81.1971 162.293 81.1971 159.625C81.1971 156.957 79.3379 154.794 77.0445 154.794C74.7511 154.794 72.892 156.957 72.892 159.625C72.892 162.293 74.7511 164.457 77.0445 164.457Z" fill="#33332D"/>
<path d="M91.875 164.457C94.1684 164.457 96.0276 162.293 96.0276 159.625C96.0276 156.957 94.1684 154.794 91.875 154.794C89.5817 154.794 87.7225 156.957 87.7225 159.625C87.7225 162.293 89.5817 164.457 91.875 164.457Z" fill="#33332D"/>
<path d="M106.706 164.457C108.999 164.457 110.858 162.293 110.858 159.625C110.858 156.957 108.999 154.794 106.706 154.794C104.412 154.794 102.553 156.957 102.553 159.625C102.553 162.293 104.412 164.457 106.706 164.457Z" fill="#33332D"/>
<path d="M121.536 164.457C123.829 164.457 125.689 162.293 125.689 159.625C125.689 156.957 123.829 154.794 121.536 154.794C119.243 154.794 117.384 156.957 117.384 159.625C117.384 162.293 119.243 164.457 121.536 164.457Z" fill="#33332D"/>
<path d="M136.367 26.4C138.66 26.4 140.519 24.237 140.519 21.5687C140.519 18.9004 138.66 16.7373 136.367 16.7373C134.073 16.7373 132.214 18.9004 132.214 21.5687C132.214 24.237 134.073 26.4 136.367 26.4Z" fill="#33332D"/>
<path d="M151.197 26.3827C153.49 26.3827 155.35 24.2196 155.35 21.5513C155.35 18.883 153.49 16.72 151.197 16.72C148.904 16.72 147.045 18.883 147.045 21.5513C147.045 24.2196 148.904 26.3827 151.197 26.3827Z" fill="#33332D"/>
<path d="M136.515 43.6377C138.808 43.6377 140.667 41.4746 140.667 38.8063C140.667 36.138 138.808 33.9749 136.515 33.9749C134.221 33.9749 132.362 36.138 132.362 38.8063C132.362 41.4746 134.221 43.6377 136.515 43.6377Z" fill="#33332D"/>
<path d="M151.345 43.6377C153.639 43.6377 155.498 41.4746 155.498 38.8063C155.498 36.138 153.639 33.9749 151.345 33.9749C149.052 33.9749 147.193 36.138 147.193 38.8063C147.193 41.4746 149.052 43.6377 151.345 43.6377Z" fill="#33332D"/>
<path d="M136.233 60.3058C138.526 60.3058 140.386 58.1427 140.386 55.4744C140.386 52.8061 138.526 50.6431 136.233 50.6431C133.94 50.6431 132.081 52.8061 132.081 55.4744C132.081 58.1427 133.94 60.3058 136.233 60.3058Z" fill="#33332D"/>
<path d="M151.064 60.3058C153.357 60.3058 155.216 58.1427 155.216 55.4744C155.216 52.8061 153.357 50.6431 151.064 50.6431C148.77 50.6431 146.911 52.8061 146.911 55.4744C146.911 58.1427 148.77 60.3058 151.064 60.3058Z" fill="#33332D"/>
<path d="M136.337 77.9577C138.63 77.9577 140.489 75.7946 140.489 73.1263C140.489 70.458 138.63 68.2949 136.337 68.2949C134.043 68.2949 132.184 70.458 132.184 73.1263C132.184 75.7946 134.043 77.9577 136.337 77.9577Z" fill="#33332D"/>
<path d="M151.167 77.9577C153.461 77.9577 155.32 75.7946 155.32 73.1263C155.32 70.458 153.461 68.2949 151.167 68.2949C148.874 68.2949 147.015 70.458 147.015 73.1263C147.015 75.7946 148.874 77.9577 151.167 77.9577Z" fill="#653D3D"/>
<path d="M136.5 95.2125C138.793 95.2125 140.653 93.0495 140.653 90.3812C140.653 87.7129 138.793 85.5498 136.5 85.5498C134.207 85.5498 132.347 87.7129 132.347 90.3812C132.347 93.0495 134.207 95.2125 136.5 95.2125Z" fill="#33332D"/>
<path d="M151.33 95.2125C153.624 95.2125 155.483 93.0495 155.483 90.3812C155.483 87.7129 153.624 85.5498 151.33 85.5498C149.037 85.5498 147.178 87.7129 147.178 90.3812C147.178 93.0495 149.037 95.2125 151.33 95.2125Z" fill="#33332D"/>
<path d="M136.218 111.881C138.512 111.881 140.371 109.718 140.371 107.049C140.371 104.381 138.512 102.218 136.218 102.218C133.925 102.218 132.066 104.381 132.066 107.049C132.066 109.718 133.925 111.881 136.218 111.881Z" fill="#33332D"/>
<path d="M151.049 111.881C153.342 111.881 155.201 109.718 155.201 107.049C155.201 104.381 153.342 102.218 151.049 102.218C148.755 102.218 146.896 104.381 146.896 107.049C146.896 109.718 148.755 111.881 151.049 111.881Z" fill="#33332D"/>
<path d="M136.5 128.808C138.793 128.808 140.653 126.645 140.653 123.976C140.653 121.308 138.793 119.145 136.5 119.145C134.207 119.145 132.347 121.308 132.347 123.976C132.347 126.645 134.207 128.808 136.5 128.808Z" fill="#33332D"/>
<path d="M151.242 147.029C153.535 147.029 155.394 144.866 155.394 142.198C155.394 139.529 153.535 137.366 151.242 137.366C148.948 137.366 147.089 139.529 147.089 142.198C147.089 144.866 148.948 147.029 151.242 147.029Z" fill="#33332D"/>
<path d="M136.663 146.063C138.956 146.063 140.816 143.9 140.816 141.231C140.816 138.563 138.956 136.4 136.663 136.4C134.37 136.4 132.511 138.563 132.511 141.231C132.511 143.9 134.37 146.063 136.663 146.063Z" fill="#33332D"/>
<path d="M151.494 129.722C153.787 129.722 155.646 127.559 155.646 124.891C155.646 122.223 153.787 120.06 151.494 120.06C149.2 120.06 147.341 122.223 147.341 124.891C147.341 127.559 149.2 129.722 151.494 129.722Z" fill="#653D3D"/>
<path d="M136.367 164.457C138.66 164.457 140.519 162.293 140.519 159.625C140.519 156.957 138.66 154.794 136.367 154.794C134.073 154.794 132.214 156.957 132.214 159.625C132.214 162.293 134.073 164.457 136.367 164.457Z" fill="#33332D"/>
<path d="M151.197 164.457C153.49 164.457 155.35 162.293 155.35 159.625C155.35 156.957 153.49 154.794 151.197 154.794C148.904 154.794 147.045 156.957 147.045 159.625C147.045 162.293 148.904 164.457 151.197 164.457Z" fill="#33332D"/>
<path d="M144.882 67.4139H81.5497V78.8041H144.882V67.4139Z" fill="#33332D"/>
<path d="M145.075 119.22H81.7425V129.941H145.075V119.22Z" fill="#33332D"/>
<path d="M82.3971 33.1041H24.6198V45.1642H82.3971V33.1041Z" fill="#33332D"/>
<path d="M82.2716 135.95H25.6055V147.341H82.2716V135.95Z" fill="#33332D"/>
<path d="M83.2102 97.2271H71.2346V83.2938H83.2102V97.2271ZM71.5312 96.882H82.9136V83.6389H71.5312V96.882Z" fill="#33332D" stroke="#33332D" stroke-width="0.1" stroke-linecap="round"/>
<path d="M72.639 97.7698V136.552H82.4287V97.7698H72.639Z" fill="#33332D"/>
<path d="M158.243 132.503H145.07V117.176H158.243V132.503ZM145.396 132.123H157.917V117.556H145.396V132.123Z" fill="#33332D" stroke="#33332D" stroke-width="0.11" stroke-linecap="round"/>
<path d="M25.0357 148.601H11.8625V133.275H25.0357V148.601ZM12.1888 148.222H24.7095V133.654H12.1888V148.222Z" fill="#33332D" stroke="#33332D" stroke-width="0.11" stroke-linecap="round"/>
<path d="M72.639 44.2795V83.0616H82.4287V44.2795H72.639Z" fill="#33332D"/>
<path d="M24.0365 45.7039H12.0609V31.7706H24.0365V45.7039ZM12.3575 45.3588H23.7399V32.1157H12.3575V45.3588Z" fill="#33332D" stroke="#33332D" stroke-width="0.1" stroke-linecap="round"/>
<path d="M157.858 80.8241H144.685V65.4974H157.858V80.8241ZM145.011 80.4445H157.532V65.877H145.011V80.4445Z" fill="#33332D" stroke="#33332D" stroke-width="0.11" stroke-linecap="round"/>
</g>
<defs>
<clipPath id="clip0_107_2435">
<rect width="175" height="173" fill="white"/>
</clipPath>
</defs>
</svg>
