<svg width="175" height="173" viewBox="0 0 175 173" fill="none" xmlns="http://www.w3.org/2000/svg">
<g clip-path="url(#clip0_101_2220)">
<path d="M16.018 29.9828C18.456 29.9828 20.4324 28.0129 20.4324 25.5828C20.4324 23.1527 18.456 21.1828 16.018 21.1828C13.58 21.1828 11.6036 23.1527 11.6036 25.5828C11.6036 28.0129 13.58 29.9828 16.018 29.9828Z" fill="#33332D"/>
<path d="M16.1757 45.6971C18.6137 45.6971 20.5901 43.7271 20.5901 41.2971C20.5901 38.867 18.6137 36.8971 16.1757 36.8971C13.7376 36.8971 11.7612 38.867 11.7612 41.2971C11.7612 43.7271 13.7376 45.6971 16.1757 45.6971Z" fill="#33332D"/>
<path d="M15.8761 60.8771C18.3141 60.8771 20.2905 58.9072 20.2905 56.4771C20.2905 54.0471 18.3141 52.0771 15.8761 52.0771C13.4381 52.0771 11.4617 54.0471 11.4617 56.4771C11.4617 58.9072 13.4381 60.8771 15.8761 60.8771Z" fill="#33332D"/>
<path d="M15.9865 76.9528C18.4245 76.9528 20.4009 74.9829 20.4009 72.5528C20.4009 70.1228 18.4245 68.1528 15.9865 68.1528C13.5485 68.1528 11.5721 70.1228 11.5721 72.5528C11.5721 74.9829 13.5485 76.9528 15.9865 76.9528Z" fill="#33332D"/>
<path d="M16.1599 92.6671C18.5979 92.6671 20.5743 90.6972 20.5743 88.2671C20.5743 85.8371 18.5979 83.8671 16.1599 83.8671C13.7219 83.8671 11.7455 85.8371 11.7455 88.2671C11.7455 90.6972 13.7219 92.6671 16.1599 92.6671Z" fill="#33332D"/>
<path d="M15.8604 107.847C18.2984 107.847 20.2748 105.877 20.2748 103.447C20.2748 101.017 18.2984 99.0472 15.8604 99.0472C13.4224 99.0472 11.446 101.017 11.446 103.447C11.446 105.877 13.4224 107.847 15.8604 107.847Z" fill="#33332D"/>
<path d="M16.1599 123.263C18.5979 123.263 20.5743 121.293 20.5743 118.863C20.5743 116.433 18.5979 114.463 16.1599 114.463C13.7219 114.463 11.7455 116.433 11.7455 118.863C11.7455 121.293 13.7219 123.263 16.1599 123.263Z" fill="#33332D"/>
<path d="M16.3333 138.977C18.7713 138.977 20.7477 137.007 20.7477 134.577C20.7477 132.147 18.7713 130.177 16.3333 130.177C13.8953 130.177 11.9189 132.147 11.9189 134.577C11.9189 137.007 13.8953 138.977 16.3333 138.977Z" fill="#33332D"/>
<path d="M16.018 155.729C18.456 155.729 20.4324 153.759 20.4324 151.329C20.4324 148.899 18.456 146.929 16.018 146.929C13.58 146.929 11.6036 148.899 11.6036 151.329C11.6036 153.759 13.58 155.729 16.018 155.729Z" fill="#33332D"/>
<path d="M31.768 29.9671C34.206 29.9671 36.1824 27.9972 36.1824 25.5671C36.1824 23.1371 34.206 21.1671 31.768 21.1671C29.33 21.1671 27.3536 23.1371 27.3536 25.5671C27.3536 27.9972 29.33 29.9671 31.768 29.9671Z" fill="#33332D"/>
<path d="M31.9257 45.6814C34.3637 45.6814 36.3401 43.7115 36.3401 41.2814C36.3401 38.8514 34.3637 36.8814 31.9257 36.8814C29.4877 36.8814 27.5113 38.8514 27.5113 41.2814C27.5113 43.7115 29.4877 45.6814 31.9257 45.6814Z" fill="#33332D"/>
<path d="M31.6261 62.4329C34.0642 62.4329 36.0406 60.4629 36.0406 58.0329C36.0406 55.6028 34.0642 53.6329 31.6261 53.6329C29.1881 53.6329 27.2117 55.6028 27.2117 58.0329C27.2117 60.4629 29.1881 62.4329 31.6261 62.4329Z" fill="#33332D"/>
<path d="M31.7365 76.9528C34.1745 76.9528 36.1509 74.9829 36.1509 72.5528C36.1509 70.1228 34.1745 68.1528 31.7365 68.1528C29.2985 68.1528 27.3221 70.1228 27.3221 72.5528C27.3221 74.9829 29.2985 76.9528 31.7365 76.9528Z" fill="#33332D"/>
<path d="M31.9099 92.6671C34.3479 92.6671 36.3243 90.6972 36.3243 88.2671C36.3243 85.8371 34.3479 83.8671 31.9099 83.8671C29.4719 83.8671 27.4955 85.8371 27.4955 88.2671C27.4955 90.6972 29.4719 92.6671 31.9099 92.6671Z" fill="#33332D"/>
<path d="M31.6104 107.831C34.0484 107.831 36.0248 105.861 36.0248 103.431C36.0248 101.001 34.0484 99.0314 31.6104 99.0314C29.1723 99.0314 27.1959 101.001 27.1959 103.431C27.1959 105.861 29.1723 107.831 31.6104 107.831Z" fill="#33332D"/>
<path d="M31.9099 123.263C34.3479 123.263 36.3243 121.293 36.3243 118.863C36.3243 116.433 34.3479 114.463 31.9099 114.463C29.4719 114.463 27.4955 116.433 27.4955 118.863C27.4955 121.293 29.4719 123.263 31.9099 123.263Z" fill="#33332D"/>
<path d="M32.0833 138.977C34.5213 138.977 36.4977 137.007 36.4977 134.577C36.4977 132.147 34.5213 130.177 32.0833 130.177C29.6453 130.177 27.6689 132.147 27.6689 134.577C27.6689 137.007 29.6453 138.977 32.0833 138.977Z" fill="#33332D"/>
<path d="M31.768 155.729C34.206 155.729 36.1824 153.759 36.1824 151.329C36.1824 148.899 34.206 146.929 31.768 146.929C29.33 146.929 27.3536 148.899 27.3536 151.329C27.3536 153.759 29.33 155.729 31.768 155.729Z" fill="#33332D"/>
<path d="M47.5495 29.9828C49.9875 29.9828 51.9639 28.0129 51.9639 25.5828C51.9639 23.1527 49.9875 21.1828 47.5495 21.1828C45.1115 21.1828 43.1351 23.1527 43.1351 25.5828C43.1351 28.0129 45.1115 29.9828 47.5495 29.9828Z" fill="#33332D"/>
<path d="M63.3153 29.9671C65.7533 29.9671 67.7297 27.9972 67.7297 25.5671C67.7297 23.1371 65.7533 21.1671 63.3153 21.1671C60.8773 21.1671 58.9009 23.1371 58.9009 25.5671C58.9009 27.9972 60.8773 29.9671 63.3153 29.9671Z" fill="#33332D"/>
<path d="M47.7072 45.6814C50.1452 45.6814 52.1216 43.7115 52.1216 41.2814C52.1216 38.8514 50.1452 36.8814 47.7072 36.8814C45.2692 36.8814 43.2928 38.8514 43.2928 41.2814C43.2928 43.7115 45.2692 45.6814 47.7072 45.6814Z" fill="#33332D"/>
<path d="M63.473 45.6814C65.911 45.6814 67.8874 43.7115 67.8874 41.2814C67.8874 38.8514 65.911 36.8814 63.473 36.8814C61.035 36.8814 59.0586 38.8514 59.0586 41.2814C59.0586 43.7115 61.035 45.6814 63.473 45.6814Z" fill="#33332D"/>
<path d="M47.4076 60.8615C49.8457 60.8615 51.8221 58.8915 51.8221 56.4615C51.8221 54.0314 49.8457 52.0615 47.4076 52.0615C44.9696 52.0615 42.9932 54.0314 42.9932 56.4615C42.9932 58.8915 44.9696 60.8615 47.4076 60.8615Z" fill="#33332D"/>
<path d="M63.1735 60.8615C65.6115 60.8615 67.5879 58.8915 67.5879 56.4615C67.5879 54.0314 65.6115 52.0615 63.1735 52.0615C60.7354 52.0615 58.759 54.0314 58.759 56.4615C58.759 58.8915 60.7354 60.8615 63.1735 60.8615Z" fill="#33332D"/>
<path d="M47.518 76.9371C49.956 76.9371 51.9324 74.9672 51.9324 72.5371C51.9324 70.1071 49.956 68.1371 47.518 68.1371C45.08 68.1371 43.1036 70.1071 43.1036 72.5371C43.1036 74.9672 45.08 76.9371 47.518 76.9371Z" fill="#33332D"/>
<path d="M63.2838 76.9371C65.7218 76.9371 67.6982 74.9672 67.6982 72.5371C67.6982 70.1071 65.7218 68.1371 63.2838 68.1371C60.8458 68.1371 58.8694 70.1071 58.8694 72.5371C58.8694 74.9672 60.8458 76.9371 63.2838 76.9371Z" fill="#33332D"/>
<path d="M47.6915 92.6514C50.1295 92.6514 52.1059 90.6814 52.1059 88.2514C52.1059 85.8213 50.1295 83.8514 47.6915 83.8514C45.2534 83.8514 43.277 85.8213 43.277 88.2514C43.277 90.6814 45.2534 92.6514 47.6915 92.6514Z" fill="#33332D"/>
<path d="M63.4572 92.6514C65.8952 92.6514 67.8716 90.6814 67.8716 88.2514C67.8716 85.8213 65.8952 83.8514 63.4572 83.8514C61.0192 83.8514 59.0428 85.8213 59.0428 88.2514C59.0428 90.6814 61.0192 92.6514 63.4572 92.6514Z" fill="#33332D"/>
<path d="M47.3919 107.831C49.8299 107.831 51.8063 105.861 51.8063 103.431C51.8063 101.001 49.8299 99.0314 47.3919 99.0314C44.9539 99.0314 42.9775 101.001 42.9775 103.431C42.9775 105.861 44.9539 107.831 47.3919 107.831Z" fill="#33332D"/>
<path d="M63.1577 107.831C65.5957 107.831 67.5721 105.861 67.5721 103.431C67.5721 101.001 65.5957 99.0314 63.1577 99.0314C60.7197 99.0314 58.7433 101.001 58.7433 103.431C58.7433 105.861 60.7197 107.831 63.1577 107.831Z" fill="#33332D"/>
<path d="M47.6915 123.247C50.1295 123.247 52.1059 121.277 52.1059 118.847C52.1059 116.417 50.1295 114.447 47.6915 114.447C45.2534 114.447 43.277 116.417 43.277 118.847C43.277 121.277 45.2534 123.247 47.6915 123.247Z" fill="#33332D"/>
<path d="M63.4572 123.247C65.8952 123.247 67.8716 121.277 67.8716 118.847C67.8716 116.417 65.8952 114.447 63.4572 114.447C61.0192 114.447 59.0428 116.417 59.0428 118.847C59.0428 121.277 61.0192 123.247 63.4572 123.247Z" fill="#33332D"/>
<path d="M47.8649 138.961C50.3029 138.961 52.2793 136.991 52.2793 134.561C52.2793 132.131 50.3029 130.161 47.8649 130.161C45.4268 130.161 43.4504 132.131 43.4504 134.561C43.4504 136.991 45.4268 138.961 47.8649 138.961Z" fill="#33332D"/>
<path d="M63.6306 138.961C66.0686 138.961 68.045 136.991 68.045 134.561C68.045 132.131 66.0686 130.161 63.6306 130.161C61.1926 130.161 59.2162 132.131 59.2162 134.561C59.2162 136.991 61.1926 138.961 63.6306 138.961Z" fill="#33332D"/>
<path d="M47.5495 155.713C49.9875 155.713 51.9639 153.743 51.9639 151.313C51.9639 148.883 49.9875 146.913 47.5495 146.913C45.1115 146.913 43.1351 148.883 43.1351 151.313C43.1351 153.743 45.1115 155.713 47.5495 155.713Z" fill="#33332D"/>
<path d="M63.3153 155.713C65.7533 155.713 67.7297 153.743 67.7297 151.313C67.7297 148.883 65.7533 146.913 63.3153 146.913C60.8773 146.913 58.9009 148.883 58.9009 151.313C58.9009 153.743 60.8773 155.713 63.3153 155.713Z" fill="#33332D"/>
<path d="M78.75 30.3286C81.1881 30.3286 83.1645 28.3586 83.1645 25.9286C83.1645 23.4985 81.1881 21.5286 78.75 21.5286C76.312 21.5286 74.3356 23.4985 74.3356 25.9286C74.3356 28.3586 76.312 30.3286 78.75 30.3286Z" fill="#33332D"/>
<path d="M94.5158 30.3129C96.9538 30.3129 98.9302 28.3429 98.9302 25.9129C98.9302 23.4828 96.9538 21.5129 94.5158 21.5129C92.0778 21.5129 90.1014 23.4828 90.1014 25.9129C90.1014 28.3429 92.0778 30.3129 94.5158 30.3129Z" fill="#33332D"/>
<path d="M110.282 30.3286C112.72 30.3286 114.696 28.3586 114.696 25.9286C114.696 23.4985 112.72 21.5286 110.282 21.5286C107.844 21.5286 105.867 23.4985 105.867 25.9286C105.867 28.3586 107.844 30.3286 110.282 30.3286Z" fill="#33332D"/>
<path d="M126.047 30.3129C128.485 30.3129 130.462 28.3429 130.462 25.9129C130.462 23.4828 128.485 21.5129 126.047 21.5129C123.609 21.5129 121.633 23.4828 121.633 25.9129C121.633 28.3429 123.609 30.3129 126.047 30.3129Z" fill="#33332D"/>
<path d="M126.205 46.0272C128.643 46.0272 130.619 44.0572 130.619 41.6272C130.619 39.1971 128.643 37.2272 126.205 37.2272C123.767 37.2272 121.791 39.1971 121.791 41.6272C121.791 44.0572 123.767 46.0272 126.205 46.0272Z" fill="#33332D"/>
<path d="M110.439 46.0272C112.877 46.0272 114.854 44.0572 114.854 41.6272C114.854 39.1971 112.877 37.2272 110.439 37.2272C108.001 37.2272 106.025 39.1971 106.025 41.6272C106.025 44.0572 108.001 46.0272 110.439 46.0272Z" fill="#33332D"/>
<path d="M94.6734 46.0272C97.1114 46.0272 99.0878 44.0572 99.0878 41.6272C99.0878 39.1971 97.1114 37.2272 94.6734 37.2272C92.2354 37.2272 90.259 39.1971 90.259 41.6272C90.259 44.0572 92.2354 46.0272 94.6734 46.0272Z" fill="#33332D"/>
<path d="M78.9077 46.0429C81.3457 46.0429 83.3221 44.0729 83.3221 41.6429C83.3221 39.2128 81.3457 37.2429 78.9077 37.2429C76.4696 37.2429 74.4932 39.2128 74.4932 41.6429C74.4932 44.0729 76.4696 46.0429 78.9077 46.0429Z" fill="#33332D"/>
<path d="M78.6081 61.2229C81.0461 61.2229 83.0225 59.2529 83.0225 56.8229C83.0225 54.3928 81.0461 52.4229 78.6081 52.4229C76.1701 52.4229 74.1937 54.3928 74.1937 56.8229C74.1937 59.2529 76.1701 61.2229 78.6081 61.2229Z" fill="#33332D"/>
<path d="M94.3739 61.2071C96.8119 61.2071 98.7883 59.2372 98.7883 56.8071C98.7883 54.3771 96.8119 52.4071 94.3739 52.4071C91.9359 52.4071 89.9595 54.3771 89.9595 56.8071C89.9595 59.2372 91.9359 61.2071 94.3739 61.2071Z" fill="#33332D"/>
<path d="M110.14 61.2071C112.578 61.2071 114.554 59.2372 114.554 56.8071C114.554 54.3771 112.578 52.4071 110.14 52.4071C107.702 52.4071 105.725 54.3771 105.725 56.8071C105.725 59.2372 107.702 61.2071 110.14 61.2071Z" fill="#33332D"/>
<path d="M125.905 61.2071C128.343 61.2071 130.32 59.2372 130.32 56.8071C130.32 54.3771 128.343 52.4071 125.905 52.4071C123.467 52.4071 121.491 54.3771 121.491 56.8071C121.491 59.2372 123.467 61.2071 125.905 61.2071Z" fill="#33332D"/>
<path d="M126.016 77.2829C128.454 77.2829 130.43 75.313 130.43 72.8829C130.43 70.4529 128.454 68.4829 126.016 68.4829C123.578 68.4829 121.601 70.4529 121.601 72.8829C121.601 75.313 123.578 77.2829 126.016 77.2829Z" fill="#33332D"/>
<path d="M110.25 77.2829C112.688 77.2829 114.664 75.313 114.664 72.8829C114.664 70.4529 112.688 68.4829 110.25 68.4829C107.812 68.4829 105.836 70.4529 105.836 72.8829C105.836 75.313 107.812 77.2829 110.25 77.2829Z" fill="#33332D"/>
<path d="M94.4842 77.2829C96.9223 77.2829 98.8987 75.313 98.8987 72.8829C98.8987 70.4529 96.9223 68.4829 94.4842 68.4829C92.0462 68.4829 90.0698 70.4529 90.0698 72.8829C90.0698 75.313 92.0462 77.2829 94.4842 77.2829Z" fill="#33332D"/>
<path d="M78.7185 77.2986C81.1565 77.2986 83.1329 75.3286 83.1329 72.8986C83.1329 70.4685 81.1565 68.4986 78.7185 68.4986C76.2805 68.4986 74.3041 70.4685 74.3041 72.8986C74.3041 75.3286 76.2805 77.2986 78.7185 77.2986Z" fill="#33332D"/>
<path d="M78.8919 93.0129C81.3299 93.0129 83.3063 91.0429 83.3063 88.6129C83.3063 86.1828 81.3299 84.2129 78.8919 84.2129C76.4539 84.2129 74.4775 86.1828 74.4775 88.6129C74.4775 91.0429 76.4539 93.0129 78.8919 93.0129Z" fill="#33332D"/>
<path d="M94.6576 92.9971C97.0957 92.9971 99.0721 91.0272 99.0721 88.5971C99.0721 86.1671 97.0957 84.1971 94.6576 84.1971C92.2196 84.1971 90.2432 86.1671 90.2432 88.5971C90.2432 91.0272 92.2196 92.9971 94.6576 92.9971Z" fill="#33332D"/>
<path d="M110.423 92.9971C112.861 92.9971 114.838 91.0272 114.838 88.5971C114.838 86.1671 112.861 84.1971 110.423 84.1971C107.985 84.1971 106.009 86.1671 106.009 88.5971C106.009 91.0272 107.985 92.9971 110.423 92.9971Z" fill="#33332D"/>
<path d="M126.189 92.9971C128.627 92.9971 130.604 91.0272 130.604 88.5971C130.604 86.1671 128.627 84.1971 126.189 84.1971C123.751 84.1971 121.775 86.1671 121.775 88.5971C121.775 91.0272 123.751 92.9971 126.189 92.9971Z" fill="#33332D"/>
<path d="M125.89 108.177C128.328 108.177 130.304 106.207 130.304 103.777C130.304 101.347 128.328 99.3771 125.89 99.3771C123.452 99.3771 121.475 101.347 121.475 103.777C121.475 106.207 123.452 108.177 125.89 108.177Z" fill="#33332D"/>
<path d="M110.124 108.177C112.562 108.177 114.538 106.207 114.538 103.777C114.538 101.347 112.562 99.3771 110.124 99.3771C107.686 99.3771 105.709 101.347 105.709 103.777C105.709 106.207 107.686 108.177 110.124 108.177Z" fill="#33332D"/>
<path d="M94.3581 108.177C96.7961 108.177 98.7725 106.207 98.7725 103.777C98.7725 101.347 96.7961 99.3771 94.3581 99.3771C91.9201 99.3771 89.9437 101.347 89.9437 103.777C89.9437 106.207 91.9201 108.177 94.3581 108.177Z" fill="#33332D"/>
<path d="M78.5923 108.193C81.0303 108.193 83.0067 106.223 83.0067 103.793C83.0067 101.363 81.0303 99.3929 78.5923 99.3929C76.1543 99.3929 74.1779 101.363 74.1779 103.793C74.1779 106.223 76.1543 108.193 78.5923 108.193Z" fill="#33332D"/>
<path d="M78.8919 123.593C81.3299 123.593 83.3063 121.623 83.3063 119.193C83.3063 116.763 81.3299 114.793 78.8919 114.793C76.4539 114.793 74.4775 116.763 74.4775 119.193C74.4775 121.623 76.4539 123.593 78.8919 123.593Z" fill="#33332D"/>
<path d="M94.6576 123.593C97.0957 123.593 99.0721 121.623 99.0721 119.193C99.0721 116.763 97.0957 114.793 94.6576 114.793C92.2196 114.793 90.2432 116.763 90.2432 119.193C90.2432 121.623 92.2196 123.593 94.6576 123.593Z" fill="#33332D"/>
<path d="M110.423 123.593C112.861 123.593 114.838 121.623 114.838 119.193C114.838 116.763 112.861 114.793 110.423 114.793C107.985 114.793 106.009 116.763 106.009 119.193C106.009 121.623 107.985 123.593 110.423 123.593Z" fill="#33332D"/>
<path d="M126.189 123.593C128.627 123.593 130.604 121.623 130.604 119.193C130.604 116.763 128.627 114.793 126.189 114.793C123.751 114.793 121.775 116.763 121.775 119.193C121.775 121.623 123.751 123.593 126.189 123.593Z" fill="#33332D"/>
<path d="M126.363 139.307C128.801 139.307 130.777 137.337 130.777 134.907C130.777 132.477 128.801 130.507 126.363 130.507C123.925 130.507 121.948 132.477 121.948 134.907C121.948 137.337 123.925 139.307 126.363 139.307Z" fill="#33332D"/>
<path d="M110.597 139.307C113.035 139.307 115.011 137.337 115.011 134.907C115.011 132.477 113.035 130.507 110.597 130.507C108.159 130.507 106.182 132.477 106.182 134.907C106.182 137.337 108.159 139.307 110.597 139.307Z" fill="#33332D"/>
<path d="M94.831 139.307C97.2691 139.307 99.2455 137.337 99.2455 134.907C99.2455 132.477 97.2691 130.507 94.831 130.507C92.393 130.507 90.4166 132.477 90.4166 134.907C90.4166 137.337 92.393 139.307 94.831 139.307Z" fill="#33332D"/>
<path d="M79.0653 139.307C81.5033 139.307 83.4797 137.337 83.4797 134.907C83.4797 132.477 81.5033 130.507 79.0653 130.507C76.6273 130.507 74.6509 132.477 74.6509 134.907C74.6509 137.337 76.6273 139.307 79.0653 139.307Z" fill="#33332D"/>
<path d="M78.75 156.059C81.1881 156.059 83.1645 154.089 83.1645 151.659C83.1645 149.229 81.1881 147.259 78.75 147.259C76.312 147.259 74.3356 149.229 74.3356 151.659C74.3356 154.089 76.312 156.059 78.75 156.059Z" fill="#33332D"/>
<path d="M94.5158 156.059C96.9538 156.059 98.9302 154.089 98.9302 151.659C98.9302 149.229 96.9538 147.259 94.5158 147.259C92.0778 147.259 90.1014 149.229 90.1014 151.659C90.1014 154.089 92.0778 156.059 94.5158 156.059Z" fill="#33332D"/>
<path d="M110.282 156.059C112.72 156.059 114.696 154.089 114.696 151.659C114.696 149.229 112.72 147.259 110.282 147.259C107.844 147.259 105.867 149.229 105.867 151.659C105.867 154.089 107.844 156.059 110.282 156.059Z" fill="#33332D"/>
<path d="M126.047 156.059C128.485 156.059 130.462 154.089 130.462 151.659C130.462 149.229 128.485 147.259 126.047 147.259C123.609 147.259 121.633 149.229 121.633 151.659C121.633 154.089 123.609 156.059 126.047 156.059Z" fill="#33332D"/>
<path d="M141.813 30.3286C144.251 30.3286 146.228 28.3586 146.228 25.9286C146.228 23.4985 144.251 21.5286 141.813 21.5286C139.375 21.5286 137.399 23.4985 137.399 25.9286C137.399 28.3586 139.375 30.3286 141.813 30.3286Z" fill="#33332D"/>
<path d="M157.579 30.3129C160.017 30.3129 161.993 28.3429 161.993 25.9129C161.993 23.4828 160.017 21.5129 157.579 21.5129C155.141 21.5129 153.164 23.4828 153.164 25.9129C153.164 28.3429 155.141 30.3129 157.579 30.3129Z" fill="#33332D"/>
<path d="M141.971 46.0272C144.409 46.0272 146.385 44.0572 146.385 41.6272C146.385 39.1971 144.409 37.2272 141.971 37.2272C139.533 37.2272 137.556 39.1971 137.556 41.6272C137.556 44.0572 139.533 46.0272 141.971 46.0272Z" fill="#33332D"/>
<path d="M157.736 46.0272C160.174 46.0272 162.151 44.0572 162.151 41.6272C162.151 39.1971 160.174 37.2272 157.736 37.2272C155.298 37.2272 153.322 39.1971 153.322 41.6272C153.322 44.0572 155.298 46.0272 157.736 46.0272Z" fill="#33332D"/>
<path d="M141.671 61.2071C144.109 61.2071 146.086 59.2372 146.086 56.8071C146.086 54.3771 144.109 52.4071 141.671 52.4071C139.233 52.4071 137.257 54.3771 137.257 56.8071C137.257 59.2372 139.233 61.2071 141.671 61.2071Z" fill="#33332D"/>
<path d="M157.437 61.2071C159.875 61.2071 161.851 59.2372 161.851 56.8071C161.851 54.3771 159.875 52.4071 157.437 52.4071C154.999 52.4071 153.023 54.3771 153.023 56.8071C153.023 59.2372 154.999 61.2071 157.437 61.2071Z" fill="#33332D"/>
<path d="M141.782 77.2829C144.22 77.2829 146.196 75.313 146.196 72.8829C146.196 70.4529 144.22 68.4829 141.782 68.4829C139.344 68.4829 137.367 70.4529 137.367 72.8829C137.367 75.313 139.344 77.2829 141.782 77.2829Z" fill="#33332D"/>
<path d="M157.547 77.2829C159.985 77.2829 161.962 75.313 161.962 72.8829C161.962 70.4529 159.985 68.4829 157.547 68.4829C155.109 68.4829 153.133 70.4529 153.133 72.8829C153.133 75.313 155.109 77.2829 157.547 77.2829Z" fill="#33332D"/>
<path d="M141.955 92.9971C144.393 92.9971 146.369 91.0272 146.369 88.5971C146.369 86.1671 144.393 84.1971 141.955 84.1971C139.517 84.1971 137.541 86.1671 137.541 88.5971C137.541 91.0272 139.517 92.9971 141.955 92.9971Z" fill="#33332D"/>
<path d="M157.721 92.9971C160.159 92.9971 162.135 91.0272 162.135 88.5971C162.135 86.1671 160.159 84.1971 157.721 84.1971C155.283 84.1971 153.306 86.1671 153.306 88.5971C153.306 91.0272 155.283 92.9971 157.721 92.9971Z" fill="#33332D"/>
<path d="M141.655 108.177C144.093 108.177 146.07 106.207 146.07 103.777C146.07 101.347 144.093 99.3771 141.655 99.3771C139.217 99.3771 137.241 101.347 137.241 103.777C137.241 106.207 139.217 108.177 141.655 108.177Z" fill="#33332D"/>
<path d="M157.421 108.177C159.859 108.177 161.836 106.207 161.836 103.777C161.836 101.347 159.859 99.3771 157.421 99.3771C154.983 99.3771 153.007 101.347 153.007 103.777C153.007 106.207 154.983 108.177 157.421 108.177Z" fill="#33332D"/>
<path d="M141.955 123.593C144.393 123.593 146.369 121.623 146.369 119.193C146.369 116.763 144.393 114.793 141.955 114.793C139.517 114.793 137.541 116.763 137.541 119.193C137.541 121.623 139.517 123.593 141.955 123.593Z" fill="#33332D"/>
<path d="M157.626 140.187C160.064 140.187 162.041 138.217 162.041 135.787C162.041 133.357 160.064 131.387 157.626 131.387C155.188 131.387 153.212 133.357 153.212 135.787C153.212 138.217 155.188 140.187 157.626 140.187Z" fill="#33332D"/>
<path d="M142.128 139.307C144.566 139.307 146.543 137.337 146.543 134.907C146.543 132.477 144.566 130.507 142.128 130.507C139.69 130.507 137.714 132.477 137.714 134.907C137.714 137.337 139.69 139.307 142.128 139.307Z" fill="#33332D"/>
<path d="M157.894 124.426C160.332 124.426 162.309 122.456 162.309 120.026C162.309 117.596 160.332 115.626 157.894 115.626C155.456 115.626 153.48 117.596 153.48 120.026C153.48 122.456 155.456 124.426 157.894 124.426Z" fill="#33332D"/>
<path d="M141.813 156.059C144.251 156.059 146.228 154.089 146.228 151.659C146.228 149.229 144.251 147.259 141.813 147.259C139.375 147.259 137.399 149.229 137.399 151.659C137.399 154.089 139.375 156.059 141.813 156.059Z" fill="#33332D"/>
<path d="M157.579 156.059C160.017 156.059 161.993 154.089 161.993 151.659C161.993 149.229 160.017 147.259 157.579 147.259C155.141 147.259 153.164 149.229 153.164 151.659C153.164 154.089 155.141 156.059 157.579 156.059Z" fill="#33332D"/>
<path d="M114.993 130.01H51.2098V139.773H114.993V130.01Z" fill="#33332D"/>
<path d="M43.0081 69.7517V106.248H53.4153V69.7517H43.0081Z" fill="#33332D"/>
<path d="M114.744 99.1379H42.6928V108.291H114.744V99.1379Z" fill="#33332D"/>
<path d="M105.769 99.7659V136.263H114.952V99.7659H105.769Z" fill="#33332D"/>
<path d="M123.545 67.6047H43.2253V79.1983H123.545V67.6047Z" fill="#33332D"/>
<path d="M121.56 36.6998V79.0831H131.355V36.6998H121.56Z" fill="#33332D"/>
<path d="M121.919 36.7104H52.2298V48.3039H121.919V36.7104Z" fill="#33332D"/>
<path d="M49.4119 153.358H15.0386V119.097H49.4119V153.358ZM15.8899 152.509H48.5605V119.945H15.8899V152.509Z" fill="#33332D" stroke="#33332D" stroke-width="1.89" stroke-linecap="round"/>
<path d="M49.2069 58.7262H14.8336V24.4651H49.2069V58.7262ZM15.685 57.8776H48.3556V25.3137H15.685V57.8776Z" fill="#33332D" stroke="#33332D" stroke-width="1.89" stroke-linecap="round"/>
</g>
<defs>
<clipPath id="clip0_101_2220">
<rect width="175" height="173" fill="white"/>
</clipPath>
</defs>
</svg>
