<svg width="175" height="173" viewBox="0 0 175 173" fill="none" xmlns="http://www.w3.org/2000/svg">
<g clip-path="url(#clip0_101_1910)">
<path d="M12.8649 34.39C15.3029 34.39 17.2793 32.4375 17.2793 30.029C17.2793 27.6204 15.3029 25.6679 12.8649 25.6679C10.4268 25.6679 8.45044 27.6204 8.45044 30.029C8.45044 32.4375 10.4268 34.39 12.8649 34.39Z" fill="#33332D"/>
<path d="M13.0225 49.9653C15.4605 49.9653 17.4369 48.0128 17.4369 45.6042C17.4369 43.1957 15.4605 41.2432 13.0225 41.2432C10.5845 41.2432 8.60809 43.1957 8.60809 45.6042C8.60809 48.0128 10.5845 49.9653 13.0225 49.9653Z" fill="#33332D"/>
<path d="M12.7229 65.011C15.161 65.011 17.1374 63.0585 17.1374 60.6499C17.1374 58.2414 15.161 56.2889 12.7229 56.2889C10.2849 56.2889 8.30853 58.2414 8.30853 60.6499C8.30853 63.0585 10.2849 65.011 12.7229 65.011Z" fill="#33332D"/>
<path d="M12.8333 80.9444C15.2713 80.9444 17.2477 78.9919 17.2477 76.5834C17.2477 74.1748 15.2713 72.2223 12.8333 72.2223C10.3953 72.2223 8.41891 74.1748 8.41891 76.5834C8.41891 78.9919 10.3953 80.9444 12.8333 80.9444Z" fill="#33332D"/>
<path d="M13.0068 96.5196C15.4448 96.5196 17.4212 94.5671 17.4212 92.1585C17.4212 89.75 15.4448 87.7975 13.0068 87.7975C10.5688 87.7975 8.59238 89.75 8.59238 92.1585C8.59238 94.5671 10.5688 96.5196 13.0068 96.5196Z" fill="#33332D"/>
<path d="M12.7072 111.565C15.1452 111.565 17.1216 109.613 17.1216 107.204C17.1216 104.796 15.1452 102.843 12.7072 102.843C10.2692 102.843 8.29282 104.796 8.29282 107.204C8.29282 109.613 10.2692 111.565 12.7072 111.565Z" fill="#33332D"/>
<path d="M13.0068 126.845C15.4448 126.845 17.4212 124.892 17.4212 122.484C17.4212 120.075 15.4448 118.122 13.0068 118.122C10.5688 118.122 8.59238 120.075 8.59238 122.484C8.59238 124.892 10.5688 126.845 13.0068 126.845Z" fill="#33332D"/>
<path d="M13.1802 142.42C15.6182 142.42 17.5946 140.467 17.5946 138.059C17.5946 135.65 15.6182 133.698 13.1802 133.698C10.7421 133.698 8.76575 135.65 8.76575 138.059C8.76575 140.467 10.7421 142.42 13.1802 142.42Z" fill="#33332D"/>
<path d="M12.8649 159.023C15.3029 159.023 17.2793 157.071 17.2793 154.662C17.2793 152.253 15.3029 150.301 12.8649 150.301C10.4268 150.301 8.45044 152.253 8.45044 154.662C8.45044 157.071 10.4268 159.023 12.8649 159.023Z" fill="#33332D"/>
<path d="M28.6149 34.3745C31.0529 34.3745 33.0293 32.422 33.0293 30.0134C33.0293 27.6049 31.0529 25.6523 28.6149 25.6523C26.1769 25.6523 24.2005 27.6049 24.2005 30.0134C24.2005 32.422 26.1769 34.3745 28.6149 34.3745Z" fill="#33332D"/>
<path d="M28.7725 49.9497C31.2106 49.9497 33.187 47.9971 33.187 45.5886C33.187 43.1801 31.2106 41.2275 28.7725 41.2275C26.3345 41.2275 24.3581 43.1801 24.3581 45.5886C24.3581 47.9971 26.3345 49.9497 28.7725 49.9497Z" fill="#33332D"/>
<path d="M28.473 66.5529C30.911 66.5529 32.8874 64.6004 32.8874 62.1919C32.8874 59.7833 30.911 57.8308 28.473 57.8308C26.035 57.8308 24.0586 59.7833 24.0586 62.1919C24.0586 64.6004 26.035 66.5529 28.473 66.5529Z" fill="#33332D"/>
<path d="M28.5833 80.9444C31.0213 80.9444 32.9977 78.9919 32.9977 76.5834C32.9977 74.1748 31.0213 72.2223 28.5833 72.2223C26.1453 72.2223 24.1689 74.1748 24.1689 76.5834C24.1689 78.9919 26.1453 80.9444 28.5833 80.9444Z" fill="#33332D"/>
<path d="M28.7568 96.5196C31.1948 96.5196 33.1712 94.5671 33.1712 92.1585C33.1712 89.75 31.1948 87.7975 28.7568 87.7975C26.3187 87.7975 24.3423 89.75 24.3423 92.1585C24.3423 94.5671 26.3187 96.5196 28.7568 96.5196Z" fill="#33332D"/>
<path d="M28.4572 111.55C30.8952 111.55 32.8716 109.597 32.8716 107.189C32.8716 104.78 30.8952 102.828 28.4572 102.828C26.0192 102.828 24.0428 104.78 24.0428 107.189C24.0428 109.597 26.0192 111.55 28.4572 111.55Z" fill="#33332D"/>
<path d="M28.7568 126.845C31.1948 126.845 33.1712 124.892 33.1712 122.484C33.1712 120.075 31.1948 118.122 28.7568 118.122C26.3187 118.122 24.3423 120.075 24.3423 122.484C24.3423 124.892 26.3187 126.845 28.7568 126.845Z" fill="#33332D"/>
<path d="M28.9302 142.42C31.3682 142.42 33.3446 140.467 33.3446 138.059C33.3446 135.65 31.3682 133.698 28.9302 133.698C26.4921 133.698 24.5157 135.65 24.5157 138.059C24.5157 140.467 26.4921 142.42 28.9302 142.42Z" fill="#33332D"/>
<path d="M28.6149 159.023C31.0529 159.023 33.0293 157.071 33.0293 154.662C33.0293 152.253 31.0529 150.301 28.6149 150.301C26.1769 150.301 24.2005 152.253 24.2005 154.662C24.2005 157.071 26.1769 159.023 28.6149 159.023Z" fill="#33332D"/>
<path d="M44.3964 34.39C46.8344 34.39 48.8108 32.4375 48.8108 30.029C48.8108 27.6204 46.8344 25.6679 44.3964 25.6679C41.9584 25.6679 39.982 27.6204 39.982 30.029C39.982 32.4375 41.9584 34.39 44.3964 34.39Z" fill="#33332D"/>
<path d="M60.1621 34.3745C62.6001 34.3745 64.5765 32.422 64.5765 30.0134C64.5765 27.6049 62.6001 25.6523 60.1621 25.6523C57.7241 25.6523 55.7477 27.6049 55.7477 30.0134C55.7477 32.422 57.7241 34.3745 60.1621 34.3745Z" fill="#33332D"/>
<path d="M44.554 49.9497C46.992 49.9497 48.9684 47.9971 48.9684 45.5886C48.9684 43.1801 46.992 41.2275 44.554 41.2275C42.116 41.2275 40.1396 43.1801 40.1396 45.5886C40.1396 47.9971 42.116 49.9497 44.554 49.9497Z" fill="#33332D"/>
<path d="M60.3199 49.9497C62.7579 49.9497 64.7343 47.9971 64.7343 45.5886C64.7343 43.1801 62.7579 41.2275 60.3199 41.2275C57.8819 41.2275 55.9055 43.1801 55.9055 45.5886C55.9055 47.9971 57.8819 49.9497 60.3199 49.9497Z" fill="#33332D"/>
<path d="M44.2545 64.9954C46.6925 64.9954 48.6689 63.0429 48.6689 60.6343C48.6689 58.2258 46.6925 56.2733 44.2545 56.2733C41.8165 56.2733 39.8401 58.2258 39.8401 60.6343C39.8401 63.0429 41.8165 64.9954 44.2545 64.9954Z" fill="#33332D"/>
<path d="M60.0203 64.9954C62.4583 64.9954 64.4347 63.0429 64.4347 60.6343C64.4347 58.2258 62.4583 56.2733 60.0203 56.2733C57.5823 56.2733 55.6059 58.2258 55.6059 60.6343C55.6059 63.0429 57.5823 64.9954 60.0203 64.9954Z" fill="#33332D"/>
<path d="M44.3649 80.9289C46.8029 80.9289 48.7793 78.9763 48.7793 76.5678C48.7793 74.1592 46.8029 72.2067 44.3649 72.2067C41.9268 72.2067 39.9504 74.1592 39.9504 76.5678C39.9504 78.9763 41.9268 80.9289 44.3649 80.9289Z" fill="#33332D"/>
<path d="M60.1307 80.9289C62.5687 80.9289 64.5451 78.9763 64.5451 76.5678C64.5451 74.1592 62.5687 72.2067 60.1307 72.2067C57.6926 72.2067 55.7162 74.1592 55.7162 76.5678C55.7162 78.9763 57.6926 80.9289 60.1307 80.9289Z" fill="#33332D"/>
<path d="M44.5383 96.504C46.9763 96.504 48.9527 94.5515 48.9527 92.143C48.9527 89.7344 46.9763 87.7819 44.5383 87.7819C42.1003 87.7819 40.1239 89.7344 40.1239 92.143C40.1239 94.5515 42.1003 96.504 44.5383 96.504Z" fill="#33332D"/>
<path d="M60.3041 96.504C62.7421 96.504 64.7185 94.5515 64.7185 92.143C64.7185 89.7344 62.7421 87.7819 60.3041 87.7819C57.866 87.7819 55.8896 89.7344 55.8896 92.143C55.8896 94.5515 57.866 96.504 60.3041 96.504Z" fill="#33332D"/>
<path d="M44.2388 111.55C46.6768 111.55 48.6532 109.597 48.6532 107.189C48.6532 104.78 46.6768 102.828 44.2388 102.828C41.8007 102.828 39.8243 104.78 39.8243 107.189C39.8243 109.597 41.8007 111.55 44.2388 111.55Z" fill="#33332D"/>
<path d="M60.0045 111.55C62.4425 111.55 64.4189 109.597 64.4189 107.189C64.4189 104.78 62.4425 102.828 60.0045 102.828C57.5665 102.828 55.5901 104.78 55.5901 107.189C55.5901 109.597 57.5665 111.55 60.0045 111.55Z" fill="#33332D"/>
<path d="M44.5383 126.829C46.9763 126.829 48.9527 124.877 48.9527 122.468C48.9527 120.059 46.9763 118.107 44.5383 118.107C42.1003 118.107 40.1239 120.059 40.1239 122.468C40.1239 124.877 42.1003 126.829 44.5383 126.829Z" fill="#33332D"/>
<path d="M60.3041 126.829C62.7421 126.829 64.7185 124.877 64.7185 122.468C64.7185 120.059 62.7421 118.107 60.3041 118.107C57.866 118.107 55.8896 120.059 55.8896 122.468C55.8896 124.877 57.866 126.829 60.3041 126.829Z" fill="#33332D"/>
<path d="M44.7117 142.404C47.1497 142.404 49.1261 140.452 49.1261 138.043C49.1261 135.635 47.1497 133.682 44.7117 133.682C42.2737 133.682 40.2973 135.635 40.2973 138.043C40.2973 140.452 42.2737 142.404 44.7117 142.404Z" fill="#33332D"/>
<path d="M60.4775 142.404C62.9155 142.404 64.8919 140.452 64.8919 138.043C64.8919 135.635 62.9155 133.682 60.4775 133.682C58.0395 133.682 56.063 135.635 56.063 138.043C56.063 140.452 58.0395 142.404 60.4775 142.404Z" fill="#33332D"/>
<path d="M44.3964 159.007C46.8344 159.007 48.8108 157.055 48.8108 154.646C48.8108 152.238 46.8344 150.285 44.3964 150.285C41.9584 150.285 39.982 152.238 39.982 154.646C39.982 157.055 41.9584 159.007 44.3964 159.007Z" fill="#33332D"/>
<path d="M60.1621 159.007C62.6001 159.007 64.5765 157.055 64.5765 154.646C64.5765 152.238 62.6001 150.285 60.1621 150.285C57.7241 150.285 55.7477 152.238 55.7477 154.646C55.7477 157.055 57.7241 159.007 60.1621 159.007Z" fill="#33332D"/>
<path d="M75.5969 34.7327C78.0349 34.7327 80.0113 32.7802 80.0113 30.3717C80.0113 27.9631 78.0349 26.0106 75.5969 26.0106C73.1589 26.0106 71.1825 27.9631 71.1825 30.3717C71.1825 32.7802 73.1589 34.7327 75.5969 34.7327Z" fill="#33332D"/>
<path d="M91.3627 34.7172C93.8007 34.7172 95.7771 32.7647 95.7771 30.3561C95.7771 27.9476 93.8007 25.9951 91.3627 25.9951C88.9246 25.9951 86.9482 27.9476 86.9482 30.3561C86.9482 32.7647 88.9246 34.7172 91.3627 34.7172Z" fill="#33332D"/>
<path d="M107.128 34.7327C109.566 34.7327 111.543 32.7802 111.543 30.3717C111.543 27.9631 109.566 26.0106 107.128 26.0106C104.69 26.0106 102.714 27.9631 102.714 30.3717C102.714 32.7802 104.69 34.7327 107.128 34.7327Z" fill="#33332D"/>
<path d="M122.894 34.7172C125.332 34.7172 127.309 32.7647 127.309 30.3561C127.309 27.9476 125.332 25.9951 122.894 25.9951C120.456 25.9951 118.48 27.9476 118.48 30.3561C118.48 32.7647 120.456 34.7172 122.894 34.7172Z" fill="#33332D"/>
<path d="M123.052 50.2924C125.49 50.2924 127.466 48.3399 127.466 45.9313C127.466 43.5228 125.49 41.5703 123.052 41.5703C120.614 41.5703 118.637 43.5228 118.637 45.9313C118.637 48.3399 120.614 50.2924 123.052 50.2924Z" fill="#33332D"/>
<path d="M107.286 50.2924C109.724 50.2924 111.7 48.3399 111.7 45.9313C111.7 43.5228 109.724 41.5703 107.286 41.5703C104.848 41.5703 102.872 43.5228 102.872 45.9313C102.872 48.3399 104.848 50.2924 107.286 50.2924Z" fill="#33332D"/>
<path d="M91.5203 50.2924C93.9583 50.2924 95.9347 48.3399 95.9347 45.9313C95.9347 43.5228 93.9583 41.5703 91.5203 41.5703C89.0823 41.5703 87.1059 43.5228 87.1059 45.9313C87.1059 48.3399 89.0823 50.2924 91.5203 50.2924Z" fill="#33332D"/>
<path d="M75.7545 50.308C78.1925 50.308 80.1689 48.3555 80.1689 45.9469C80.1689 43.5384 78.1925 41.5859 75.7545 41.5859C73.3165 41.5859 71.3401 43.5384 71.3401 45.9469C71.3401 48.3555 73.3165 50.308 75.7545 50.308Z" fill="#33332D"/>
<path d="M75.4549 65.3536C77.893 65.3536 79.8694 63.4011 79.8694 60.9925C79.8694 58.584 77.893 56.6315 75.4549 56.6315C73.0169 56.6315 71.0405 58.584 71.0405 60.9925C71.0405 63.4011 73.0169 65.3536 75.4549 65.3536Z" fill="#33332D"/>
<path d="M91.2207 65.338C93.6587 65.338 95.6351 63.3855 95.6351 60.977C95.6351 58.5684 93.6587 56.6159 91.2207 56.6159C88.7827 56.6159 86.8063 58.5684 86.8063 60.977C86.8063 63.3855 88.7827 65.338 91.2207 65.338Z" fill="#33332D"/>
<path d="M106.986 65.338C109.425 65.338 111.401 63.3855 111.401 60.977C111.401 58.5684 109.425 56.6159 106.986 56.6159C104.548 56.6159 102.572 58.5684 102.572 60.977C102.572 63.3855 104.548 65.338 106.986 65.338Z" fill="#33332D"/>
<path d="M122.752 65.338C125.19 65.338 127.167 63.3855 127.167 60.977C127.167 58.5684 125.19 56.6159 122.752 56.6159C120.314 56.6159 118.338 58.5684 118.338 60.977C118.338 63.3855 120.314 65.338 122.752 65.338Z" fill="#33332D"/>
<path d="M122.863 81.2716C125.301 81.2716 127.277 79.319 127.277 76.9105C127.277 74.502 125.301 72.5494 122.863 72.5494C120.425 72.5494 118.448 74.502 118.448 76.9105C118.448 79.319 120.425 81.2716 122.863 81.2716Z" fill="#33332D"/>
<path d="M107.097 81.2716C109.535 81.2716 111.511 79.319 111.511 76.9105C111.511 74.502 109.535 72.5494 107.097 72.5494C104.659 72.5494 102.682 74.502 102.682 76.9105C102.682 79.319 104.659 81.2716 107.097 81.2716Z" fill="#33332D"/>
<path d="M91.3311 81.2716C93.7691 81.2716 95.7455 79.319 95.7455 76.9105C95.7455 74.502 93.7691 72.5494 91.3311 72.5494C88.8931 72.5494 86.9167 74.502 86.9167 76.9105C86.9167 79.319 88.8931 81.2716 91.3311 81.2716Z" fill="#33332D"/>
<path d="M75.5653 81.2871C78.0033 81.2871 79.9797 79.3346 79.9797 76.9261C79.9797 74.5175 78.0033 72.565 75.5653 72.565C73.1273 72.565 71.1509 74.5175 71.1509 76.9261C71.1509 79.3346 73.1273 81.2871 75.5653 81.2871Z" fill="#33332D"/>
<path d="M75.7387 96.8623C78.1767 96.8623 80.1531 94.9098 80.1531 92.5013C80.1531 90.0927 78.1767 88.1402 75.7387 88.1402C73.3007 88.1402 71.3243 90.0927 71.3243 92.5013C71.3243 94.9098 73.3007 96.8623 75.7387 96.8623Z" fill="#33332D"/>
<path d="M91.5045 96.8468C93.9425 96.8468 95.9189 94.8942 95.9189 92.4857C95.9189 90.0771 93.9425 88.1246 91.5045 88.1246C89.0665 88.1246 87.0901 90.0771 87.0901 92.4857C87.0901 94.8942 89.0665 96.8468 91.5045 96.8468Z" fill="#33332D"/>
<path d="M107.27 96.8468C109.708 96.8468 111.685 94.8942 111.685 92.4857C111.685 90.0771 109.708 88.1246 107.27 88.1246C104.832 88.1246 102.856 90.0771 102.856 92.4857C102.856 94.8942 104.832 96.8468 107.27 96.8468Z" fill="#33332D"/>
<path d="M123.036 96.8468C125.474 96.8468 127.45 94.8942 127.45 92.4857C127.45 90.0771 125.474 88.1246 123.036 88.1246C120.598 88.1246 118.622 90.0771 118.622 92.4857C118.622 94.8942 120.598 96.8468 123.036 96.8468Z" fill="#33332D"/>
<path d="M122.736 111.892C125.174 111.892 127.151 109.94 127.151 107.531C127.151 105.123 125.174 103.17 122.736 103.17C120.298 103.17 118.322 105.123 118.322 107.531C118.322 109.94 120.298 111.892 122.736 111.892Z" fill="#33332D"/>
<path d="M106.971 111.892C109.409 111.892 111.385 109.94 111.385 107.531C111.385 105.123 109.409 103.17 106.971 103.17C104.533 103.17 102.556 105.123 102.556 107.531C102.556 109.94 104.533 111.892 106.971 111.892Z" fill="#33332D"/>
<path d="M91.2049 111.892C93.643 111.892 95.6194 109.94 95.6194 107.531C95.6194 105.123 93.643 103.17 91.2049 103.17C88.7669 103.17 86.7905 105.123 86.7905 107.531C86.7905 109.94 88.7669 111.892 91.2049 111.892Z" fill="#33332D"/>
<path d="M75.4392 111.908C77.8772 111.908 79.8536 109.955 79.8536 107.547C79.8536 105.138 77.8772 103.186 75.4392 103.186C73.0012 103.186 71.0247 105.138 71.0247 107.547C71.0247 109.955 73.0012 111.908 75.4392 111.908Z" fill="#33332D"/>
<path d="M75.7387 127.172C78.1767 127.172 80.1531 125.219 80.1531 122.811C80.1531 120.402 78.1767 118.45 75.7387 118.45C73.3007 118.45 71.3243 120.402 71.3243 122.811C71.3243 125.219 73.3007 127.172 75.7387 127.172Z" fill="#33332D"/>
<path d="M91.5045 127.172C93.9425 127.172 95.9189 125.219 95.9189 122.811C95.9189 120.402 93.9425 118.45 91.5045 118.45C89.0665 118.45 87.0901 120.402 87.0901 122.811C87.0901 125.219 89.0665 127.172 91.5045 127.172Z" fill="#33332D"/>
<path d="M107.27 127.172C109.708 127.172 111.685 125.219 111.685 122.811C111.685 120.402 109.708 118.45 107.27 118.45C104.832 118.45 102.856 120.402 102.856 122.811C102.856 125.219 104.832 127.172 107.27 127.172Z" fill="#33332D"/>
<path d="M123.036 127.172C125.474 127.172 127.45 125.219 127.45 122.811C127.45 120.402 125.474 118.45 123.036 118.45C120.598 118.45 118.622 120.402 118.622 122.811C118.622 125.219 120.598 127.172 123.036 127.172Z" fill="#33332D"/>
<path d="M123.209 142.747C125.647 142.747 127.624 140.794 127.624 138.386C127.624 135.977 125.647 134.025 123.209 134.025C120.771 134.025 118.795 135.977 118.795 138.386C118.795 140.794 120.771 142.747 123.209 142.747Z" fill="#33332D"/>
<path d="M107.444 142.747C109.882 142.747 111.858 140.794 111.858 138.386C111.858 135.977 109.882 134.025 107.444 134.025C105.006 134.025 103.029 135.977 103.029 138.386C103.029 140.794 105.006 142.747 107.444 142.747Z" fill="#33332D"/>
<path d="M91.6779 142.747C94.1159 142.747 96.0923 140.794 96.0923 138.386C96.0923 135.977 94.1159 134.025 91.6779 134.025C89.2399 134.025 87.2635 135.977 87.2635 138.386C87.2635 140.794 89.2399 142.747 91.6779 142.747Z" fill="#33332D"/>
<path d="M75.9121 142.747C78.3501 142.747 80.3265 140.794 80.3265 138.386C80.3265 135.977 78.3501 134.025 75.9121 134.025C73.4741 134.025 71.4977 135.977 71.4977 138.386C71.4977 140.794 73.4741 142.747 75.9121 142.747Z" fill="#33332D"/>
<path d="M75.5969 159.35C78.0349 159.35 80.0113 157.398 80.0113 154.989C80.0113 152.581 78.0349 150.628 75.5969 150.628C73.1589 150.628 71.1825 152.581 71.1825 154.989C71.1825 157.398 73.1589 159.35 75.5969 159.35Z" fill="#33332D"/>
<path d="M91.3627 159.35C93.8007 159.35 95.7771 157.398 95.7771 154.989C95.7771 152.581 93.8007 150.628 91.3627 150.628C88.9246 150.628 86.9482 152.581 86.9482 154.989C86.9482 157.398 88.9246 159.35 91.3627 159.35Z" fill="#33332D"/>
<path d="M107.128 159.35C109.566 159.35 111.543 157.398 111.543 154.989C111.543 152.581 109.566 150.628 107.128 150.628C104.69 150.628 102.714 152.581 102.714 154.989C102.714 157.398 104.69 159.35 107.128 159.35Z" fill="#33332D"/>
<path d="M122.894 159.35C125.332 159.35 127.309 157.398 127.309 154.989C127.309 152.581 125.332 150.628 122.894 150.628C120.456 150.628 118.48 152.581 118.48 154.989C118.48 157.398 120.456 159.35 122.894 159.35Z" fill="#33332D"/>
<path d="M138.66 34.7327C141.098 34.7327 143.074 32.7802 143.074 30.3717C143.074 27.9631 141.098 26.0106 138.66 26.0106C136.222 26.0106 134.246 27.9631 134.246 30.3717C134.246 32.7802 136.222 34.7327 138.66 34.7327Z" fill="#33332D"/>
<path d="M154.426 34.7172C156.864 34.7172 158.84 32.7647 158.84 30.3561C158.84 27.9476 156.864 25.9951 154.426 25.9951C151.988 25.9951 150.011 27.9476 150.011 30.3561C150.011 32.7647 151.988 34.7172 154.426 34.7172Z" fill="#33332D"/>
<path d="M138.818 50.2924C141.256 50.2924 143.232 48.3399 143.232 45.9313C143.232 43.5228 141.256 41.5703 138.818 41.5703C136.38 41.5703 134.403 43.5228 134.403 45.9313C134.403 48.3399 136.38 50.2924 138.818 50.2924Z" fill="#33332D"/>
<path d="M154.583 50.2924C157.021 50.2924 158.998 48.3399 158.998 45.9313C158.998 43.5228 157.021 41.5703 154.583 41.5703C152.145 41.5703 150.169 43.5228 150.169 45.9313C150.169 48.3399 152.145 50.2924 154.583 50.2924Z" fill="#33332D"/>
<path d="M138.518 65.338C140.956 65.338 142.932 63.3855 142.932 60.977C142.932 58.5684 140.956 56.6159 138.518 56.6159C136.08 56.6159 134.104 58.5684 134.104 60.977C134.104 63.3855 136.08 65.338 138.518 65.338Z" fill="#33332D"/>
<path d="M154.284 65.338C156.722 65.338 158.698 63.3855 158.698 60.977C158.698 58.5684 156.722 56.6159 154.284 56.6159C151.846 56.6159 149.869 58.5684 149.869 60.977C149.869 63.3855 151.846 65.338 154.284 65.338Z" fill="#33332D"/>
<path d="M138.628 81.2716C141.066 81.2716 143.043 79.319 143.043 76.9105C143.043 74.502 141.066 72.5494 138.628 72.5494C136.19 72.5494 134.214 74.502 134.214 76.9105C134.214 79.319 136.19 81.2716 138.628 81.2716Z" fill="#33332D"/>
<path d="M154.394 81.2716C156.832 81.2716 158.809 79.319 158.809 76.9105C158.809 74.502 156.832 72.5494 154.394 72.5494C151.956 72.5494 149.98 74.502 149.98 76.9105C149.98 79.319 151.956 81.2716 154.394 81.2716Z" fill="#33332D"/>
<path d="M138.802 96.8468C141.24 96.8468 143.216 94.8942 143.216 92.4857C143.216 90.0771 141.24 88.1246 138.802 88.1246C136.364 88.1246 134.387 90.0771 134.387 92.4857C134.387 94.8942 136.364 96.8468 138.802 96.8468Z" fill="#33332D"/>
<path d="M154.568 96.8468C157.006 96.8468 158.982 94.8942 158.982 92.4857C158.982 90.0771 157.006 88.1246 154.568 88.1246C152.13 88.1246 150.153 90.0771 150.153 92.4857C150.153 94.8942 152.13 96.8468 154.568 96.8468Z" fill="#33332D"/>
<path d="M138.502 111.892C140.94 111.892 142.917 109.94 142.917 107.531C142.917 105.123 140.94 103.17 138.502 103.17C136.064 103.17 134.088 105.123 134.088 107.531C134.088 109.94 136.064 111.892 138.502 111.892Z" fill="#33332D"/>
<path d="M154.268 111.892C156.706 111.892 158.682 109.94 158.682 107.531C158.682 105.123 156.706 103.17 154.268 103.17C151.83 103.17 149.854 105.123 149.854 107.531C149.854 109.94 151.83 111.892 154.268 111.892Z" fill="#33332D"/>
<path d="M138.802 127.172C141.24 127.172 143.216 125.219 143.216 122.811C143.216 120.402 141.24 118.45 138.802 118.45C136.364 118.45 134.387 120.402 134.387 122.811C134.387 125.219 136.364 127.172 138.802 127.172Z" fill="#33332D"/>
<path d="M154.473 143.619C156.911 143.619 158.887 141.667 158.887 139.258C158.887 136.849 156.911 134.897 154.473 134.897C152.035 134.897 150.059 136.849 150.059 139.258C150.059 141.667 152.035 143.619 154.473 143.619Z" fill="#33332D"/>
<path d="M138.975 142.747C141.413 142.747 143.39 140.794 143.39 138.386C143.39 135.977 141.413 134.025 138.975 134.025C136.537 134.025 134.561 135.977 134.561 138.386C134.561 140.794 136.537 142.747 138.975 142.747Z" fill="#33332D"/>
<path d="M154.741 127.997C157.179 127.997 159.155 126.045 159.155 123.636C159.155 121.228 157.179 119.275 154.741 119.275C152.303 119.275 150.327 121.228 150.327 123.636C150.327 126.045 152.303 127.997 154.741 127.997Z" fill="#33332D"/>
<path d="M138.66 159.35C141.098 159.35 143.074 157.398 143.074 154.989C143.074 152.581 141.098 150.628 138.66 150.628C136.222 150.628 134.246 152.581 134.246 154.989C134.246 157.398 136.222 159.35 138.66 159.35Z" fill="#33332D"/>
<path d="M154.426 159.35C156.864 159.35 158.84 157.398 158.84 154.989C158.84 152.581 156.864 150.628 154.426 150.628C151.988 150.628 150.011 152.581 150.011 154.989C150.011 157.398 151.988 159.35 154.426 159.35Z" fill="#33332D"/>
<path d="M7.85049 126.644V159.317H18.2576V126.644H7.85049Z" fill="#33332D"/>
<path d="M23.6163 70.1981V158.882H34.0234V70.1981H23.6163Z" fill="#33332D"/>
<path d="M39.382 100.772V159.116H49.7892V100.772H39.382Z" fill="#33332D"/>
<path d="M55.1478 116.175V159.35H65.5549V116.175H55.1478Z" fill="#33332D"/>
<path d="M70.9135 40.1698V159.193H81.3207V40.1698H70.9135Z" fill="#33332D"/>
<path d="M86.6793 87.8277V159.008H97.0864V87.8277H86.6793Z" fill="#33332D"/>
<path d="M102.445 26.1283V159.154H112.852V26.1283H102.445Z" fill="#33332D"/>
<path d="M118.211 129.952V159.124H128.618V129.952H118.211Z" fill="#33332D"/>
<path d="M133.977 70.463V159.147H144.384V70.463H133.977Z" fill="#33332D"/>
<path d="M149.742 54.2111V159.232H160.149V54.2111H149.742Z" fill="#33332D"/>
</g>
<defs>
<clipPath id="clip0_101_1910">
<rect width="175" height="173" fill="white"/>
</clipPath>
</defs>
</svg>
